<?xml version="1.0" standalone="no"?>
<!DOCTYPE svg PUBLIC "-//W3C//DTD SVG 1.1//EN" "http://www.w3.org/Graphics/SVG/1.1/DTD/svg11.dtd" >
<svg>
<metadata>
Created by FontForge 20090622 at Sat Jun  2 15:42:33 2018
 By deploy user
(c) 2000 Borna Rayaneh
</metadata>
<defs>
<font id="BBadrBold" horiz-adv-x="0" >
  <font-face 
    font-family="B Badr"
    font-weight="700"
    font-stretch="normal"
    units-per-em="2010"
    panose-1="0 0 7 0 0 0 0 0 0 0"
    ascent="1608"
    descent="-402"
    bbox="-177 -1514 1978 2066"
    underline-thickness="100"
    underline-position="-830"
    unicode-range="U+0020-U+FEFC"
  />
<missing-glyph horiz-adv-x="1005" 
d="M126 0v1181h753v-1181h-753zM251 126h503v929h-503v-929z" />
    <glyph glyph-name="uFC60" unicode="&#x651;&#x64e;" arabic-form="isolated" 
d="M395 1387q-23 -86 -83 -86q-36 0 -50.5 14.5t-26.5 28.5l-39 -70q-37 -50 -95 -50q-32 0 -51 45q-14 33 -14 69q0 116 62 126q-6 -38 -6 -65q0 -60 29 -60q52 0 66 71q4 20 12 87q21 11 49 20q8 -106 48 -106q54 0 57 151l35 16q30 -108 7 -191zM387 1745l-355 -189v77
l355 191v-79z" />
    <glyph glyph-name="uFC61" unicode="&#x651;&#x64f;" arabic-form="isolated" 
d="M400 1395q-23 -86 -83 -86q-36 0 -50.5 14.5t-26.5 28.5l-39 -70q-37 -50 -95 -50q-32 0 -51 45q-14 33 -14 69q0 116 62 126q-6 -38 -6 -65q0 -60 29 -60q52 0 66 71q4 20 12 87q21 11 49 20q8 -106 48 -106q54 0 57 151l35 16q30 -108 7 -191zM414 1771q4 -15 4 -27
q0 -31 -19 -55q-33 7 -88 24q-136 -127 -267 -157l-16 52q161 63 228 142q-54 52 -54 98q0 38 47 96.5t84 58.5q73 0 73 -84q0 -82 -47 -131q17 -10 55 -17zM356 1886q0 42 -48 42q-19 0 -32 -22.5t-13 -43.5q0 -15 18 -36.5t33 -21.5q14 0 29 34q13 30 13 48z" />
    <glyph glyph-name="uE818" unicode="&#x651;&#x64b;" 
d="M379 1419q-23 -86 -83 -86q-36 0 -50.5 14.5t-26.5 28.5l-39 -70q-37 -50 -95 -50q-32 0 -51 45q-14 33 -14 69q0 116 62 126q-6 -38 -6 -65q0 -60 29 -60q52 0 66 71q4 20 12 87q21 11 49 20q8 -106 48 -106q54 0 57 151l35 16q30 -108 7 -191zM383 1775l-355 -189v77
l355 191v-79zM383 1949l-355 -186v76l355 191v-81zM383 1775l-355 -189v77l355 191v-79z" />
    <glyph glyph-name="uFC5E" unicode="&#x651;&#x64c;" arabic-form="isolated" 
d="M383 1432q-23 -86 -83 -86q-36 0 -50.5 14.5t-26.5 28.5l-39 -70q-37 -50 -95 -50q-32 0 -51 45q-14 33 -14 69q0 116 62 126q-6 -38 -6 -65q0 -60 29 -60q52 0 66 71q4 20 12 87q21 11 49 20q8 -106 48 -106q54 0 57 151l35 16q30 -108 7 -191zM395 1798q4 -15 4 -27
q0 -31 -19 -55q-33 7 -88 24q-136 -127 -267 -157l-16 53l72 43q24 59 -8 76q-25 14 -62 -15l-18 31q46 53 104 53q42 0 42 -63q0 -35 -18 -71q88 50 116 87q-54 52 -54 98q0 38 47 96.5t84 58.5q73 0 73 -84q0 -79 -47 -131q22 -11 55 -17zM337 1913q0 42 -48 42
q-19 0 -32 -22.5t-13 -43.5q0 -15 18 -36.5t33 -21.5q14 0 29 34q13 30 13 48z" />
    <glyph glyph-name="uFC62" unicode="&#x651;&#x650;" arabic-form="isolated" 
d="M377 1650q-23 -86 -83 -86q-36 0 -50.5 14.5t-26.5 28.5l-39 -70q-37 -50 -95 -50q-32 0 -51 45q-14 33 -14 69q0 116 62 126q-6 -38 -6 -65q0 -60 29 -60q52 0 66 71q4 20 12 87q21 11 49 20q8 -106 48 -106q54 0 57 151l35 16q30 -108 7 -191zM379 1444l-355 -188v76
l355 191v-79z" />
    <glyph glyph-name="uFC5F" unicode="&#x651;&#x64d;" arabic-form="isolated" 
d="M395 1875q-23 -86 -83 -86q-36 0 -50.5 14.5t-26.5 28.5l-39 -70q-37 -50 -95 -50q-32 0 -51 45q-14 33 -14 69q0 116 62 126q-6 -38 -6 -65q0 -60 29 -60q52 0 66 71q4 20 12 87q21 11 49 20q8 -106 48 -106q54 0 57 151l35 16q30 -108 7 -191zM393 1472l-366 -193v78
l366 198v-83zM393 1663l-366 -193v79l366 196v-82z" />
    <glyph glyph-name="uFEF5" unicode="&#xfedf;&#xfe82;" horiz-adv-x="1026" arabic-form="isolated" 
d="M1029 975q0 -21 -46 -139q-6 -16 -24 -14q-16 2 -16 4q-13 -192 -37 -291q-18 -75 -59 -138q0 21 3 22q7 0 27 -87q30 -132 30 -194q0 -103 -21 -125q-31 -33 -273 -33q-111 0 -111 68v132q0 23 14 23q7 0 32.5 -9.5t38.5 -9.5q34 0 103.5 83.5t69.5 119.5
q-42 70 -160 204q-132 149 -216 207q-41 -29 -75 -29q-32 0 -68 25q-113 78 -113 168q0 133 103 133q77 0 319 -261q43 -46 255 -343q40 49 55 200q11 105 7 216q0 10 -20 24t-20 26q0 27 80 196q14 30 28 30q16 0 16 -40q0 -11 -5.5 -31t-5.5 -31q0 -23 44.5 -54t44.5 -52z
M800 310q-30 -34 -95 -123h90q52 0 52 28q0 36 -47 95zM535 1418q-42 -128 -126 -128q-47 0 -138 20.5t-137 20.5q-32 0 -85 -49q-13 -12 -20 -12q-13 0 -6 36q8 38 42 76q47 52 113 52q34 0 105 -20.5t108 -20.5q82 0 123 51q8 10 17 12q10 4 10 -10q0 -10 -6 -28z" />
    <glyph glyph-name="uFEF6" unicode="&#xfee0;&#xfe82;" horiz-adv-x="1231" arabic-form="final" 
d="M1261 1h-60q-213 0 -253 600q-4 63 -13 63q-11 0 -22 -86l-18 -147q-22 -156 -88 -288q-112 -225 -493 -225q-37 0 -37 15q0 12 33 29q352 178 473 360q-94 306 -387 491l-23 -34q-85 0 -158 48q-83 54 -83 135q0 135 75 135q115 0 402 -309q194 -209 194 -421
q58 103 69 311q6 113 6 197q0 33 -3.5 98.5t-3.5 55.5q9 15 76 115q28 42 36 42q12 0 14 -89q8 -276 45 -545q26 -184 49 -244q40 -103 135 -103h35v-204zM555 1418q-42 -128 -126 -128q-47 0 -138 20.5t-137 20.5q-32 0 -85 -49q-13 -12 -20 -12q-13 0 -6 36q8 38 42 76
q47 52 113 52q34 0 105 -20.5t108 -20.5q82 0 123 51q8 10 17 12q10 4 10 -10q0 -10 -6 -28z" />
    <glyph glyph-name="uFEF7" unicode="&#xfedf;&#xfe84;" horiz-adv-x="1026" arabic-form="isolated" 
d="M1029 975q0 -21 -46 -139q-6 -16 -24 -14q-16 2 -16 4q-13 -192 -37 -291q-18 -75 -59 -138q0 21 3 22q7 0 27 -87q30 -132 30 -194q0 -103 -21 -125q-31 -33 -273 -33q-111 0 -111 68v132q0 23 14 23q7 0 32.5 -9.5t38.5 -9.5q34 0 103.5 83.5t69.5 119.5
q-42 70 -160 204q-132 149 -216 207q-41 -29 -75 -29q-32 0 -68 25q-113 78 -113 168q0 133 103 133q77 0 319 -261q43 -46 255 -343q40 49 55 200q11 105 7 216q0 10 -20 24t-20 26q0 27 80 196q14 30 28 30q16 0 16 -40q0 -11 -5.5 -31t-5.5 -31q0 -23 44.5 -54t44.5 -52z
M800 310q-30 -34 -95 -123h90q52 0 52 28q0 36 -47 95zM349 1225q-63 -15 -152 -43q-55 -18 -116 -56q-22 -14 -37 -14q-17 0 -17 15q0 18 37 50q46 38 48 44q-70 35 -70 77q0 48 67 112q75 71 154 71q44 0 44 -57q0 -55 -45 -55q-3 0 -27 11.5t-42 11.5q-15 0 -38 -12.5
t-23 -26.5q0 -66 103 -66q55 0 126 19q10 2 10 -13q0 -12 -7 -38q-8 -29 -15 -30z" />
    <glyph glyph-name="uFEF8" unicode="&#xfee0;&#xfe84;" horiz-adv-x="1231" arabic-form="final" 
d="M1261 1h-60q-213 0 -253 600q-4 63 -13 63q-11 0 -22 -86l-18 -147q-22 -156 -88 -288q-112 -225 -493 -225q-37 0 -37 15q0 12 33 29q352 178 473 360q-94 306 -387 491l-23 -34q-85 0 -158 48q-83 54 -83 135q0 135 75 135q115 0 402 -309q194 -209 194 -421
q58 103 69 311q6 113 6 197q0 33 -3.5 98.5t-3.5 55.5q9 15 76 115q28 42 36 42q12 0 14 -89q8 -276 45 -545q26 -184 49 -244q40 -103 135 -103h35v-204zM359 1234q-64 -14 -152 -43q-56 -17 -116 -56q-22 -14 -37 -14q-17 0 -17 15q0 19 37 50q45 39 48 44q-70 35 -70 77
q0 49 67 112q75 71 154 71q44 0 44 -57q0 -55 -45 -55q-3 0 -27 11.5t-42 11.5q-16 0 -37 -11q-24 -14 -24 -28q0 -66 103 -66q54 0 126 19q10 3 10 -13q0 -11 -7 -37q-8 -29 -15 -31z" />
    <glyph glyph-name="uFEF9" unicode="&#xfedf;&#xfe88;" horiz-adv-x="1026" arabic-form="isolated" 
d="M1029 975q0 -21 -46 -139q-6 -16 -24 -14q-16 2 -16 4q-13 -192 -37 -291q-18 -75 -59 -138q0 21 3 22q7 0 27 -87q30 -132 30 -194q0 -103 -21 -125q-31 -33 -273 -33q-111 0 -111 68v132q0 23 14 23q7 0 32.5 -9.5t38.5 -9.5q34 0 103.5 83.5t69.5 119.5
q-42 70 -160 204q-132 149 -216 207q-41 -29 -75 -29q-32 0 -68 25q-113 78 -113 168q0 133 103 133q77 0 319 -261q43 -46 255 -343q40 49 55 200q11 105 7 216q0 10 -20 24t-20 26q0 27 80 196q14 30 28 30q16 0 16 -40q0 -11 -5.5 -31t-5.5 -31q0 -23 44.5 -54t44.5 -52z
M800 310q-30 -34 -95 -123h90q52 0 52 28q0 36 -47 95zM742 -346q-64 -15 -152 -43q-56 -17 -116 -56q-22 -14 -37 -14q-17 0 -17 15q0 19 37 50q45 39 48 44q-70 35 -70 77q0 49 67 112q74 71 154 71q44 0 44 -57q0 -55 -45 -55q-3 0 -27 11.5t-42 11.5q-16 0 -37 -11
q-24 -14 -24 -28q0 -66 103 -66q54 0 126 19q10 3 10 -13q0 -11 -7 -37q-8 -29 -15 -31z" />
    <glyph glyph-name="uFEFA" unicode="&#xfee0;&#xfe88;" horiz-adv-x="1231" arabic-form="final" 
d="M1261 1h-60q-213 0 -253 600q-4 63 -13 63q-11 0 -22 -86l-18 -147q-22 -156 -88 -288q-112 -225 -493 -225q-37 0 -37 15q0 12 33 29q352 178 473 360q-94 306 -387 491l-23 -34q-85 0 -158 48q-83 54 -83 135q0 135 75 135q115 0 402 -309q194 -209 194 -421
q58 103 69 311q6 113 6 197q0 33 -3.5 98.5t-3.5 55.5q9 15 76 115q28 42 36 42q12 0 14 -89q8 -276 45 -545q26 -184 49 -244q40 -103 135 -103h35v-204zM917 -334q-64 -15 -152 -43q-56 -18 -116 -56q-23 -14 -37 -14q-17 0 -17 15q0 19 37 50q45 39 48 44q-70 35 -70 77
q0 48 67 112q74 71 154 71q44 0 44 -57q0 -55 -45 -55q-4 0 -27.5 11.5t-41.5 11.5q-16 0 -38.5 -12.5t-22.5 -26.5q0 -66 103 -66q54 0 126 19q10 3 10 -13q0 -12 -7 -37q-8 -29 -15 -31z" />
    <glyph glyph-name="uFEFB" unicode="&#xfedf;&#xfe8e;" horiz-adv-x="1026" arabic-form="isolated" 
d="M1029 975q0 -21 -46 -139q-6 -16 -24 -14q-16 2 -16 4q-13 -192 -37 -291q-18 -75 -59 -138q0 21 3 22q7 0 27 -87q30 -132 30 -194q0 -103 -21 -125q-31 -33 -273 -33q-111 0 -111 68v132q0 23 14 23q7 0 32.5 -9.5t38.5 -9.5q34 0 103.5 83.5t69.5 119.5
q-42 70 -160 204q-132 149 -216 207q-41 -29 -75 -29q-32 0 -68 25q-113 78 -113 168q0 133 103 133q77 0 319 -261q43 -46 255 -343q40 49 55 200q11 105 7 216q0 10 -20 24t-20 26q0 27 80 196q14 30 28 30q16 0 16 -40q0 -11 -5.5 -31t-5.5 -31q0 -23 44.5 -54t44.5 -52z
M800 310q-30 -34 -95 -123h90q52 0 52 28q0 36 -47 95z" />
    <glyph glyph-name="uFEFC" unicode="&#xfee0;&#xfe8e;" horiz-adv-x="1231" arabic-form="final" 
d="M1261 1h-60q-213 0 -253 600q-4 63 -13 63q-11 0 -22 -86l-18 -147q-22 -156 -88 -288q-112 -225 -493 -225q-37 0 -37 15q0 12 33 29q352 178 473 360q-94 306 -387 491l-23 -34q-85 0 -158 48q-83 54 -83 135q0 135 75 135q115 0 402 -309q194 -209 194 -421
q58 103 69 311q6 113 6 197q0 33 -3.5 98.5t-3.5 55.5q9 15 76 115q28 42 36 42q12 0 14 -89q8 -276 45 -545q26 -184 49 -244q40 -103 135 -103h35v-204z" />
    <glyph glyph-name="uFDF2" unicode="&#xfedf;&#xfee0;&#xfeea;" horiz-adv-x="1195" arabic-form="isolated" 
d="M902 1355q0 -92 -39 -144q-11 -15 -20 -15q-13 0 -13 25q0 10 4 26q10 41 -6 103q-3 13 -55 90q0 4 15 44.5t17 52.5q97 -51 97 -182zM1018 1095q0 -168 -111 -168q-39 0 -59 11l-16 12q-50 -50 -98 -50q-78 0 -80 75q-1 48 43 123q11 19 21 19t10 -20q0 -12 -8.5 -36
t-8.5 -35q0 -36 53 -36q43 0 60 37q5 12 16 71q6 33 29 33q17 0 14 -36q-5 -65 28 -81q30 -15 52 14q11 15 -2 80q-1 6 44 47q13 -26 13 -60zM1196 286q0 -287 -162 -287q-88 0 -177 123l-48 -86q-48 -59 -135 -59q-154 0 -174 253q-70 -74 -160 -74q-41 0 -89 11
q-69 16 -69 42q0 13 31 73q29 56 42 74q78 104 263 183v22q23 46 57 107q17 31 27 31q8 0 3 -43q-19 -156 1 -344q13 -125 104 -125q67 0 90 36q17 21 17 87q0 109 -34 336q-3 10 54 95q13 19 20 19q8 0 10 -19q9 -88 39 -315q33 -223 143 -223q59 0 59 58q0 59 -43 188
t-43 195q0 68 53 136q12 16 19 16t10 -20q11 -83 54 -273q38 -169 38 -217zM512 349q4 15 4 39q0 26 -6 55q-97 -23 -181 -102q63 -27 108 -27q66 0 75 35z" />
    <glyph glyph-name="u0622" unicode="&#x622;" horiz-adv-x="636" arabic-form="isolated" 
d="M665 1527q-42 -129 -125 -129q-47 0 -138 20.5t-138 20.5q-30 0 -82 -48q-14 -13 -21 -13q-9 0 -9 14q0 8 3 21q5 37 40 77q47 53 115 53q34 0 105 -20.5t108 -20.5q79 0 122 52q26 31 26 1q0 -10 -6 -28zM487 371q3 -36 3 -70q0 -203 -87 -289q-27 -27 -33 -27
q-8 0 -3 66q13 167 -11 506q-3 49 -25 276q-19 200 -19 228q0 27 39 99q16 29 49 81q19 24 25 24q7 0 7 -38q0 -155 20 -410z" />
    <glyph glyph-name="Hcircumflex" unicode="&#x622;" horiz-adv-x="664" arabic-form="final" 
d="M664 1495q-43 -129 -124 -129q-47 0 -138.5 20.5t-137.5 20.5q-29 0 -83 -49q-13 -12 -21 -12q-13 0 -6 36q8 38 41 76q47 53 114 53q34 0 105 -21t108 -21q82 0 122 52q14 14 20 14t6 -11t-6 -29zM694 1h-60q-197 0 -257 196q-44 143 -44 524q0 227 -21 368l70 105
q28 42 33 44q6 0 17 -94v-550q0 -170 29 -252q48 -137 184 -137h49v-204z" />
    <glyph glyph-name="u0623" unicode="&#x623;" horiz-adv-x="489" arabic-form="isolated" 
d="M481 1414q-61 -13 -153 -42q-54 -17 -115 -55q-22 -14 -38 -14q-17 0 -17 15q0 18 38 50q43 36 47 43q-70 43 -70 77q0 49 67 112q75 70 154 70q45 0 45 -57q0 -54 -45 -54q-4 0 -27.5 12t-42.5 12q-14 0 -37 -13.5t-23 -26.5q0 -65 100 -65q48 0 128 19q10 2 10 -14
q0 -11 -7 -37q-8 -29 -14 -32zM427 371q3 -36 3 -70q0 -203 -87 -289q-27 -27 -33 -27q-8 0 -3 66q13 167 -11 506q-3 49 -25 276q-19 200 -19 228q0 27 39 99q16 29 49 81q19 24 25 24q7 0 7 -38q0 -155 20 -410z" />
    <glyph glyph-name="uFE84" unicode="&#x623;" horiz-adv-x="594" arabic-form="final" 
d="M471 1376q-61 -13 -152 -42q-76 -24 -115 -57q-22 -13 -38 -13q-18 0 -18 14q0 19 38 51q43 36 47 43q-69 39 -69 77q0 48 67 112q74 71 153 71q45 0 45 -57q0 -54 -45 -54q-3 0 -27 11.5t-42 11.5q-16 0 -37 -12q-24 -13 -24 -27q0 -66 102 -66q52 0 126 19q10 3 10 -13
q0 -11 -7 -37q-8 -29 -14 -32zM624 1h-60q-197 0 -257 196q-44 143 -44 524q0 227 -21 368l70 105q28 42 33 44q6 0 17 -94v-550q0 -170 29 -252q48 -137 184 -137h49v-204z" />
    <glyph glyph-name="u0624" unicode="&#x624;" horiz-adv-x="827" arabic-form="isolated" 
d="M791 794q-185 -42 -269 -98q-21 -14 -36 -14q-19 0 -19 16q0 17 38 47q43 35 48 45q-70 41 -70 78q0 48 67 112q74 70 154 70q44 0 44 -57q0 -55 -46 -55q-2 0 -25.5 12t-42.5 12q-17 0 -37 -12q-23 -13 -23 -28q0 -65 99 -65q48 0 128 19q10 2 10 -15q0 -59 -20 -67z
M824 201q0 -179 -108 -346q-116 -179 -264 -179q-143 0 -278 43q-78 25 -78 46q0 18 50 19q36 0 128 2q216 8 398 187q95 93 95 129q0 26 -31 69q-53 -80 -127 -80q-105 0 -105 142q0 60 41 152q53 118 125 118q65 0 112 -107q42 -96 42 -195zM702 258q0 26 -23.5 54.5
t-48.5 28.5q-12 0 -31.5 -26.5t-19.5 -39.5q0 -45 64 -45q59 0 59 28z" />
    <glyph glyph-name="uFE86" unicode="&#x624;" horiz-adv-x="876" arabic-form="final" 
d="M779 705q-192 -38 -268 -99q-20 -12 -36 -12q-19 0 -19 14q0 17 39 50q44 37 47 44q-70 40 -70 78q0 48 67 112q74 70 154 70q44 0 44 -58q0 -53 -45 -53q-3 0 -27 11.5t-42 11.5q-16 0 -37 -12q-24 -13 -24 -27q0 -67 100 -67q53 0 130 20q8 2 8 -13q0 -61 -21 -70z
M908 1h-77q-171 -388 -389 -388q-154 0 -307 90q-37 22 -37 39q0 20 47 16l118 -9q20 -1 39 -1q186 0 347 134q84 70 110 114q-12 0 -36 -1.5t-36 -1.5q-186 0 -186 125q0 49 53 160q60 126 114 126q57 0 109 -90l50 -109h81v-204zM739 163q0 19 -44.5 53.5t-65.5 34.5
q-25 0 -44 -35q-15 -28 -15 -47q0 -27 98 -27q71 0 71 21z" />
    <glyph glyph-name="u0625" unicode="&#x625;" horiz-adv-x="516" arabic-form="isolated" 
d="M437 371q3 -36 3 -70q0 -203 -87 -289q-27 -27 -33 -27q-8 0 -3 66q13 167 -11 506q-3 49 -25 276q-19 200 -19 228q0 27 39 99q16 29 49 81q19 24 25 24q7 0 7 -38q0 -155 20 -410zM493 -374q-61 -13 -153 -42q-54 -17 -115 -55q-22 -14 -38 -14q-17 0 -17 15
q0 18 38 50q43 36 47 43q-70 43 -70 77q0 49 67 112q75 70 154 70q45 0 45 -57q0 -54 -45 -54q-4 0 -27.5 12t-42.5 12q-16 0 -38 -12.5t-22 -27.5q0 -65 100 -65q48 0 128 19q10 2 10 -14q0 -11 -7 -37q-8 -29 -14 -32z" />
    <glyph glyph-name="uFE88" unicode="&#x625;" horiz-adv-x="614" arabic-form="final" 
d="M644 1h-60q-197 0 -257 196q-44 143 -44 524q0 227 -21 368l70 105q28 42 33 44q6 0 17 -94v-550q0 -170 29 -252q48 -137 184 -137h49v-204zM533 -374q-61 -13 -153 -42q-54 -17 -115 -55q-22 -14 -38 -14q-17 0 -17 15q0 18 38 50q43 36 47 43q-70 43 -70 77
q0 49 67 112q75 70 154 70q45 0 45 -57q0 -54 -45 -54q-4 0 -27.5 12t-42.5 12q-16 0 -38 -12.5t-22 -27.5q0 -65 100 -65q48 0 128 19q10 2 10 -14q0 -11 -7 -37q-8 -29 -14 -32z" />
    <glyph glyph-name="u0626" unicode="&#x626;" horiz-adv-x="1267" arabic-form="isolated" 
d="M477 570q-174 -38 -269 -99q-20 -13 -36 -13q-18 0 -18 14q0 6 4 12q8 17 44 47t38 35q-70 35 -70 77q0 48 67 112q74 70 154 70q45 0 45 -56q0 -55 -48 -55q-3 0 -26 12t-41 12q-15 0 -38 -13.5t-23 -27.5q0 -66 102 -66q50 0 127 20q9 2 9 -13q0 -59 -21 -68zM1234 578
q0 -159 -73 -159q-1 0 -21.5 19.5t-35.5 19.5q-63 0 -173 -77q-114 -80 -114 -139q0 -35 67 -55l103 -20q99 -19 123 -29q71 -29 71 -90q0 -121 -32 -163q-82 -108 -247 -190q-179 -89 -344 -89q-376 0 -376 329q0 188 107 353q11 17 28 17q22 0 9 -37q-56 -156 -56 -224
q0 -122 102 -184q85 -51 216 -51q276 0 474 135q45 31 45 41t-60 14q-153 11 -178 17q-127 32 -127 136q0 93 69 210q52 88 116 149q134 128 220 128q31 0 57 -15q30 -17 30 -46z" />
    <glyph glyph-name="uFE8A" unicode="&#x626;" horiz-adv-x="1234" arabic-form="final" 
d="M1264 1h-112q-153 0 -210 -24q-24 -10 -24 -22q0 -10 17 -13q63 -9 126 -19q90 -15 112 -35q27 -25 27 -101q0 -89 -163 -209q-190 -140 -417 -140q-186 0 -300 69q-138 85 -138 260q0 226 136 379q17 19 28 19q14 0 14 -29q0 21 -4 21q-10 0 -43 -103q-46 -149 -46 -194
q0 -219 395 -219q299 0 431 113q12 10 12 16q0 13 -61 21q-132 17 -167 29q-74 25 -74 84q0 111 108 201q119 100 293 100h60v-204zM497 440q-174 -38 -269 -99q-20 -13 -36 -13q-18 0 -18 14q0 6 4 12q8 17 44 47t38 35q-70 35 -70 77q0 48 67 112q74 70 154 70
q45 0 45 -56q0 -55 -48 -55q-3 0 -26 12t-41 12q-15 0 -38 -13.5t-23 -27.5q0 -66 102 -66q50 0 127 20q9 2 9 -13q0 -59 -21 -68z" />
    <glyph glyph-name="uFE8B" unicode="&#x626;" horiz-adv-x="340" arabic-form="initial" 
d="M331 345q0 -129 -46 -223q-59 -121 -175 -121h-129v204h133q115 0 154 21q-26 98 -56 139l46 130q11 24 18 24q6 0 18 -20q37 -63 37 -154zM359 783q-64 -15 -152 -43q-56 -18 -116 -56q-22 -14 -37 -14q-17 0 -17 15q0 18 37 50q45 39 48 44q-70 35 -70 77q0 48 67 112
q75 71 154 71q44 0 44 -57q0 -55 -45 -55q-3 0 -27 11.5t-42 11.5q-16 0 -37 -12q-24 -13 -24 -27q0 -66 103 -66q54 0 126 19q10 3 10 -13q0 -12 -7 -37q-8 -29 -15 -31z" />
    <glyph glyph-name="uFE8C" unicode="&#x626;" horiz-adv-x="450" arabic-form="medial" 
d="M362 692q-51 -10 -152 -42q-62 -20 -116 -56q-21 -14 -37 -14q-20 0 -20 11q0 6 6 15q9 19 41.5 44.5t40.5 38.5q-70 35 -70 76q0 49 67 113q74 71 154 71q45 0 45 -57q0 -54 -46 -54q-5 0 -28.5 10.5t-40.5 10.5q-16 0 -37 -11q-24 -13 -24 -27q0 -67 103 -67
q54 0 125 19q10 3 10 -14q0 -11 -7 -37q-8 -29 -14 -30zM499 1h-75q-143 0 -203 126q-55 -126 -191 -126h-60v204h51q155 0 183 41q11 17 31 78q13 41 36 41q21 0 17 -34q-2 -17 -2 -24q0 -102 158 -102h55v-204z" />
    <glyph glyph-name="u0627" unicode="&#x627;" horiz-adv-x="357" arabic-form="isolated" 
d="M357 371q3 -36 3 -70q0 -203 -87 -289q-27 -27 -33 -27q-8 0 -3 66q13 167 -11 506q-3 49 -25 276q-19 200 -19 228q0 27 39 99q16 29 49 81q19 24 25 24q7 0 7 -38q0 -155 20 -410z" />
    <glyph glyph-name="uFE8E" unicode="&#x627;" horiz-adv-x="534" arabic-form="final" 
d="M564 1h-60q-197 0 -257 196q-44 143 -44 524q0 227 -21 368l70 105q28 42 33 44q6 0 17 -94v-550q0 -170 29 -252q48 -137 184 -137h49v-204z" />
    <glyph glyph-name="u0628" unicode="&#x628;" horiz-adv-x="1434" arabic-form="isolated" 
d="M848 -300q0 -13 -59.5 -64.5t-72.5 -51.5q-7 0 -66 57.5t-59 64.5q0 5 60 61t67 56q10 0 70 -57t60 -66zM1430 394q0 -181 -104 -280q-76 -73 -307 -118q-183 -36 -336 -36q-197 0 -328 64q-173 84 -173 260q0 82 52 174q48 85 77 85q17 0 17 -23q0 -3 -22 -59.5
t-22 -88.5q0 -117 171 -171q114 -36 263 -36q151 0 329 19q67 7 175 37q132 36 131 69q-1 50 -88 150q-4 5 60 170q9 23 16 23q6 0 17 -15q72 -101 72 -224z" />
    <glyph glyph-name="uFE90" unicode="&#x628;" horiz-adv-x="1475" arabic-form="final" 
d="M816 -311q0 -14 -59 -66t-74 -52q-6 0 -64.5 58t-58.5 65q0 5 60 60.5t67 55.5q9 0 69 -56.5t60 -64.5zM1505 1h-75q-72 0 -127 67q-33 40 -48 87q-68 -55 -206 -110q-172 -68 -312 -68h-150q-164 0 -276 75q-129 87 -129 242q0 105 47 189q39 69 65 69q12 0 12 -17
q0 -8 -20.5 -62t-20.5 -80q0 -97 127 -162q105 -54 213 -54h146q353 0 533 176q24 23 33 23q5 0 2 -28l-5 -44q0 -48 50 -76q41 -23 93 -23h48v-204z" />
    <glyph glyph-name="uFE91" unicode="&#x628;" horiz-adv-x="353" arabic-form="initial" 
d="M356 -218q0 -14 -59.5 -66t-73.5 -52q-5 0 -64 58.5t-59 64.5q0 5 59.5 60t65.5 55q9 0 70 -56t61 -64zM330 345q0 -130 -45 -223q-59 -121 -175 -121h-140v204h144q115 0 154 21q-25 95 -57 139l47 130q9 24 16 24t19 -20q37 -63 37 -154z" />
    <glyph glyph-name="uFE92" unicode="&#x628;" horiz-adv-x="467" arabic-form="medial" 
d="M358 -226q0 -13 -59 -65t-73 -52q-6 0 -64.5 58t-58.5 64t58.5 62t65.5 56q11 0 71 -56.5t60 -66.5zM499 1h-75q-143 0 -203 126q-55 -126 -191 -126h-60v204h51q155 0 183 41q11 17 31 78q13 41 36 41q21 0 17 -34q-2 -17 -2 -24q0 -102 158 -102h55v-204z" />
    <glyph glyph-name="u067E" unicode="&#x67e;" horiz-adv-x="1434" arabic-form="isolated" 
d="M1005 -242q0 -8 -48.5 -54.5t-57.5 -46.5q-12 0 -103 85q-89 -83 -103 -83q-10 0 -60 45t-50 54q0 10 48.5 52t58.5 42q11 0 109 -85q88 85 98 85q12 0 60 -42t48 -52zM895 -443q0 -8 -47.5 -53t-55.5 -45q-11 0 -60 43t-49 52q0 11 49 52.5t60 41.5q12 0 57.5 -40
t45.5 -51zM1430 394q0 -181 -104 -280q-76 -73 -307 -118q-183 -36 -336 -36q-197 0 -328 64q-173 84 -173 260q0 82 52 174q48 85 77 85q17 0 17 -23q0 -3 -22 -59.5t-22 -88.5q0 -117 171 -171q114 -36 263 -36q151 0 329 19q67 7 175 37q132 36 131 69q-1 50 -88 150
q-4 5 60 170q9 23 16 23q6 0 17 -15q72 -101 72 -224z" />
    <glyph glyph-name="uFB57" unicode="&#x67e;" horiz-adv-x="1475" arabic-form="final" 
d="M919 -238q0 -9 -48.5 -56t-57.5 -47q-12 0 -102 87q-89 -85 -105 -85q-9 0 -58.5 46t-49.5 55q0 7 49 49.5t58 42.5q11 0 108 -84q90 84 96 84q12 0 61 -41t49 -51zM809 -440q0 -8 -47.5 -53.5t-55.5 -45.5q-9 0 -58 44.5t-49 52.5q0 10 48.5 50.5t60.5 40.5
q10 0 55.5 -40t45.5 -49zM1505 1h-75q-72 0 -127 67q-33 40 -48 87q-68 -55 -206 -110q-172 -68 -312 -68h-150q-164 0 -276 75q-129 87 -129 242q0 105 47 189q39 69 65 69q12 0 12 -17q0 -8 -20.5 -62t-20.5 -80q0 -97 127 -162q105 -54 213 -54h146q353 0 533 176
q24 23 33 23q5 0 2 -28l-5 -44q0 -48 50 -76q41 -23 93 -23h48v-204z" />
    <glyph glyph-name="uFB58" unicode="&#x67e;" horiz-adv-x="458" arabic-form="initial" 
d="M449 -238q0 -9 -48.5 -56t-57.5 -47q-12 0 -102 87q-89 -85 -105 -85q-9 0 -58.5 46t-49.5 55q0 7 49 49.5t58 42.5q11 0 108 -84q90 84 96 84q12 0 61 -41t49 -51zM339 -440q0 -8 -47.5 -53.5t-55.5 -45.5q-9 0 -58 44.5t-49 52.5q0 10 48.5 50.5t60.5 40.5
q10 0 55.5 -40t45.5 -49zM330 345q0 -130 -45 -223q-59 -121 -175 -121h-140v204h144q115 0 154 21q-25 95 -57 139l47 130q9 24 16 24t19 -20q37 -63 37 -154z" />
    <glyph glyph-name="uFB59" unicode="&#x67e;" horiz-adv-x="476" arabic-form="medial" 
d="M449 -238q0 -9 -48.5 -56t-57.5 -47q-12 0 -102 87q-89 -85 -105 -85q-9 0 -58.5 46t-49.5 55q0 7 49 49.5t58 42.5q11 0 108 -84q90 84 96 84q12 0 61 -41t49 -51zM339 -440q0 -8 -47.5 -53.5t-55.5 -45.5q-9 0 -58 44.5t-49 52.5q0 10 48.5 50.5t60.5 40.5
q10 0 55.5 -40t45.5 -49zM499 1h-75q-143 0 -203 126q-55 -126 -191 -126h-60v204h51q155 0 183 41q11 17 31 78q13 41 36 41q21 0 17 -34q-2 -17 -2 -24q0 -102 158 -102h55v-204z" />
    <glyph glyph-name="u062A" unicode="&#x62a;" horiz-adv-x="1434" arabic-form="isolated" 
d="M1020 755q0 -10 -49.5 -59t-59.5 -49q-13 0 -108 91q-94 -88 -109 -88q-10 0 -62 48t-52 57q0 8 50.5 52t59.5 44q14 0 115 -87q94 87 102 87q11 0 62 -43.5t51 -52.5zM1430 394q0 -181 -104 -280q-76 -73 -307 -118q-183 -36 -336 -36q-197 0 -328 64q-173 84 -173 260
q0 82 52 174q48 85 77 85q17 0 17 -23q0 -3 -22 -59.5t-22 -88.5q0 -117 171 -171q114 -36 263 -36q151 0 329 19q67 7 175 37q132 36 131 69q-1 50 -88 150q-4 5 60 170q9 23 16 23q6 0 17 -15q72 -101 72 -224z" />
    <glyph glyph-name="uFE96" unicode="&#x62a;" horiz-adv-x="1475" arabic-form="final" 
d="M997 748q0 -11 -50 -60t-61 -49q-13 0 -106 92q-94 -89 -110 -89q-10 0 -61 48t-51 58q0 7 50 51t58 44q15 0 115 -88q94 88 102 88q12 0 63 -42.5t51 -52.5zM1505 1h-75q-72 0 -127 67q-33 40 -48 87q-68 -55 -206 -110q-172 -68 -312 -68h-150q-164 0 -276 75
q-129 87 -129 242q0 105 47 189q39 69 65 69q12 0 12 -17q0 -8 -20.5 -62t-20.5 -80q0 -97 127 -162q105 -54 213 -54h146q353 0 533 176q24 23 33 23q5 0 2 -28l-5 -44q0 -48 50 -76q41 -23 93 -23h48v-204z" />
    <glyph glyph-name="uFE97" unicode="&#x62a;" horiz-adv-x="458" arabic-form="initial" 
d="M471 797q0 -9 -50.5 -58t-59.5 -49q-13 0 -108 91q-92 -89 -109 -89q-10 0 -61 48t-51 57q0 8 50.5 53t59.5 45q12 0 114 -90q93 90 102 90q12 0 62.5 -44t50.5 -54zM330 345q0 -130 -45 -223q-59 -121 -175 -121h-140v204h144q115 0 154 21q-25 95 -57 139l47 130
q9 24 16 24t19 -20q37 -63 37 -154z" />
    <glyph glyph-name="uFE98" unicode="&#x62a;" horiz-adv-x="470" arabic-form="medial" 
d="M443 681q0 -9 -50 -58.5t-59 -49.5q-15 0 -108 91q-94 -88 -110 -88q-9 0 -60.5 48t-51.5 57q0 8 50.5 52t59.5 44q14 0 113 -87q95 87 104 87q12 0 62 -43t50 -53zM499 1h-75q-143 0 -203 126q-55 -126 -191 -126h-60v204h51q155 0 183 41q11 17 31 78q13 41 36 41
q21 0 17 -34q-2 -17 -2 -24q0 -102 158 -102h55v-204z" />
    <glyph glyph-name="u062B" unicode="&#x62b;" horiz-adv-x="1434" arabic-form="isolated" 
d="M590 675q0 11 48 56.5t59 45.5t102 -85q88 83 103 83q10 0 60 -45.5t50 -54.5q0 -8 -49 -51t-57 -43q-12 0 -110 87q-89 -87 -98 -87q-11 0 -59.5 42.5t-48.5 51.5zM698 876q0 8 48.5 53t56.5 45q10 0 59 -43.5t49 -52.5t-48.5 -50t-59.5 -41q-12 0 -58.5 39t-46.5 50z
M1430 394q0 -181 -104 -280q-76 -73 -307 -118q-183 -36 -336 -36q-197 0 -328 64q-173 84 -173 260q0 82 52 174q48 85 77 85q17 0 17 -23q0 -3 -22 -59.5t-22 -88.5q0 -117 171 -171q114 -36 263 -36q151 0 329 19q67 7 175 37q132 36 131 69q-1 50 -88 150q-4 5 60 170
q9 23 16 23q6 0 17 -15q72 -101 72 -224z" />
    <glyph glyph-name="uFE9A" unicode="&#x62b;" horiz-adv-x="1475" arabic-form="final" 
d="M583 678q0 10 48 56.5t58 46.5q11 0 102 -87q90 85 104 85q9 0 58.5 -46t49.5 -55q0 -8 -48.5 -50t-56.5 -42q-14 0 -107 86q-94 -86 -101 -86q-11 0 -59 41.5t-48 50.5zM693 880q0 8 47 53.5t55 45.5q11 0 59 -44t48 -54t-48.5 -50.5t-60.5 -40.5q-11 0 -55.5 40
t-44.5 50zM1505 1h-75q-72 0 -127 67q-33 40 -48 87q-68 -55 -206 -110q-172 -68 -312 -68h-150q-164 0 -276 75q-129 87 -129 242q0 105 47 189q39 69 65 69q12 0 12 -17q0 -8 -20.5 -62t-20.5 -80q0 -97 127 -162q105 -54 213 -54h146q353 0 533 176q24 23 33 23
q5 0 2 -28l-5 -44q0 -48 50 -76q41 -23 93 -23h48v-204z" />
    <glyph glyph-name="uFE9B" unicode="&#x62b;" horiz-adv-x="422" arabic-form="initial" 
d="M26 737q0 8 49 55t58 47q11 0 100 -87q90 86 106 86q10 0 59.5 -46t49.5 -55q0 -8 -49 -50.5t-59 -42.5q-11 0 -107 85q-91 -85 -98 -85q-12 0 -60.5 41.5t-48.5 51.5zM135 938q0 9 47.5 53.5t56.5 44.5q10 0 59 -43.5t49 -52.5t-49.5 -50.5t-60.5 -41.5t-56.5 40
t-45.5 50zM330 345q0 -130 -45 -223q-59 -121 -175 -121h-140v204h144q115 0 154 21q-25 95 -57 139l47 130q9 24 16 24t19 -20q37 -63 37 -154z" />
    <glyph glyph-name="uFE9C" unicode="&#x62b;" horiz-adv-x="470" arabic-form="medial" 
d="M23 594q0 10 48.5 56t58.5 46q12 0 101 -86q91 82 105 82q9 0 59 -45t50 -53t-48.5 -51t-57.5 -43q-11 0 -109 86q-90 -86 -98 -86q-12 0 -60.5 42t-48.5 52zM134 795q0 8 47 54t55 46q11 0 59.5 -44t48.5 -54q0 -11 -48 -51.5t-61 -40.5q-11 0 -56 40t-45 50zM499 1h-75
q-143 0 -203 126q-55 -126 -191 -126h-60v204h51q155 0 183 41q11 17 31 78q13 41 36 41q21 0 17 -34q-2 -17 -2 -24q0 -102 158 -102h55v-204z" />
    <glyph glyph-name="u062C" unicode="&#x62c;" horiz-adv-x="1035" arabic-form="isolated" 
d="M812 -171q0 -13 -59.5 -65.5t-72.5 -52.5q-6 0 -66 58t-60 64t60 61t68 55q10 0 70 -55.5t60 -64.5zM1233 -594q0 -29 -68 -57q-27 -10 -97 -39q-2 -1 -112 -53q-83 -30 -192 -30q-264 0 -414 114q-168 127 -168 384q0 161 61 310q84 205 265 326q-37 16 -112 16
q-58 0 -96 -26q-20 -14 -44 -47q-19 -26 -33 -26q-26 0 -13 48q29 105 66 157q64 90 183 90q73 0 217 -18t217 -18q61 0 114 7q17 2 21 -3q1 -3 1 -6q0 -6 -3 -18q-5 -20 -39 -98q-37 -85 -45 -85q-300 0 -491 -173q-170 -154 -170 -348q0 -387 580 -387h185q24 0 72.5 5.5
t72.5 5.5q42 0 42 -31z" />
    <glyph glyph-name="uFE9E" unicode="&#x62c;" horiz-adv-x="1083" arabic-form="final" 
d="M751 -230q0 -12 -60.5 -65t-73.5 -53q-5 0 -64.5 58.5t-59.5 63.5q0 6 60 61t67 55q10 0 70.5 -55.5t60.5 -64.5zM1026 205h88v-204h-88q-117 0 -178 23q-91 34 -109 128q-5 26 -10 172q-179 -44 -309 -184q-139 -149 -139 -327q0 -237 155 -323q123 -68 425 -68h185
q25 0 74.5 6.5t74.5 6.5q38 0 38 -29t-68 -57q-27 -10 -97 -39q-12 -5 -112 -55q-83 -32 -192 -32q-270 0 -403 87q-179 117 -179 415q0 393 321 639q-36 16 -114 16q-62 0 -117 -51.5t-51 -51.5q-21 0 -8 62q50 234 246 234q67 0 200.5 -16.5t200.5 -16.5q58 0 105 6
q16 2 20 -4q6 -12 -42 -120q-36 -82 -43 -82q-72 0 -117 -5q-3 -18 -3 -32q0 -65 67 -85q44 -13 179 -13z" />
    <glyph glyph-name="uFE9F" unicode="&#x62c;" horiz-adv-x="844" arabic-form="initial" 
d="M591 -184q0 -12 -59.5 -64t-72.5 -52q-7 0 -66 58t-59 65q0 5 60 60t67 55q10 0 70 -56.5t60 -65.5zM841 396q0 -24 -23.5 -94t-37.5 -86q-8 -9 -76 -9q-117 0 -331.5 -103t-330.5 -103h-71v204h104q98 0 219 37l185 58l-129 53q-107 43 -137 43q-40 0 -69 -16
q-41 -23 -48 -24q-21 -3 -21 24q0 39 41 106q58 95 149 95q71 0 135 -35l158 -88q60 -33 177 -42q102 -8 104 -11.5t2 -8.5z" />
    <glyph glyph-name="uFEA0" unicode="&#x62c;" horiz-adv-x="997" arabic-form="medial" 
d="M658 -184q0 -12 -60 -64t-72 -52q-7 0 -66 58t-59 65q0 5 59.5 60t66.5 55q10 0 70.5 -56.5t60.5 -65.5zM1025 1h-84q-105 0 -159 90q-35 58 -58 186q-148 -29 -357 -160q-185 -116 -308 -116h-88v204h101q118 0 257 61q5 2 201 86q-30 4 -142 32q-95 24 -140 24
q-50 0 -134 -59q-20 0 -20 20q0 52 48 127q62 98 154 98q71 0 218.5 -50t221.5 -50q135 0 159 6q19 5 25 -0.5t3 -25.5q-12 -80 -35 -162q-40 -13 -113 -19q0 -65 71 -82q25 -6 119 -6h60v-204z" />
    <glyph glyph-name="u0686" unicode="&#x686;" horiz-adv-x="1035" arabic-form="isolated" 
d="M907 -134q0 -8 -49 -54t-58 -46q-11 0 -102 86q-90 -85 -105 -85q-9 0 -58 45.5t-49 53.5q0 9 48.5 51.5t57.5 42.5q12 0 106 -86q94 86 101 86q12 0 60 -42t48 -52zM796 -335q0 -8 -47.5 -53t-54.5 -45q-12 0 -59.5 43t-47.5 54q0 10 47.5 50.5t59.5 40.5t57 -39.5
t45 -50.5zM1233 -594q0 -29 -68 -57q-27 -10 -97 -39q-2 -1 -112 -53q-83 -30 -192 -30q-264 0 -414 114q-168 127 -168 384q0 161 61 310q84 205 265 326q-37 16 -112 16q-58 0 -96 -26q-20 -14 -44 -47q-19 -26 -33 -26q-26 0 -13 48q29 105 66 157q64 90 183 90
q73 0 217 -18t217 -18q61 0 114 7q17 2 21 -3q1 -3 1 -6q0 -6 -3 -18q-5 -20 -39 -98q-37 -85 -45 -85q-299 0 -491 -174q-170 -154 -170 -347q0 -387 580 -387h185q24 0 72.5 5.5t72.5 5.5q42 0 42 -31z" />
    <glyph glyph-name="uFB7B" unicode="&#x686;" horiz-adv-x="1083" arabic-form="final" 
d="M865 -152q0 -9 -49 -55.5t-59 -46.5q-12 0 -100 87q-91 -84 -107 -84q-9 0 -58 45t-49 54t48.5 50.5t58.5 41.5q11 0 108 -84q90 84 97 84q12 0 61 -41t49 -51zM753 -353q0 -9 -47 -53.5t-56 -44.5q-10 0 -58.5 43t-48.5 52q0 10 48.5 51t60.5 41q11 0 56 -39.5t45 -49.5
zM1026 205h88v-204h-88q-117 0 -178 23q-91 34 -109 128q-5 26 -10 172q-179 -44 -309 -184q-139 -149 -139 -327q0 -237 155 -323q123 -68 425 -68h185q25 0 74.5 6.5t74.5 6.5q38 0 38 -29t-68 -57q-27 -10 -97 -39q-12 -5 -112 -55q-83 -32 -192 -32q-270 0 -403 87
q-179 117 -179 415q0 393 321 639q-36 16 -114 16q-62 0 -117 -51.5t-51 -51.5q-21 0 -8 62q50 234 246 234q67 0 200.5 -16.5t200.5 -16.5q58 0 105 6q16 2 20 -4q6 -12 -42 -120q-36 -82 -43 -82q-72 0 -117 -5q-3 -18 -3 -32q0 -65 67 -85q44 -13 179 -13z" />
    <glyph glyph-name="uFB7C" unicode="&#x686;" horiz-adv-x="844" arabic-form="initial" 
d="M661 -203q0 -8 -48.5 -54.5t-57.5 -46.5q-12 0 -100 86q-91 -85 -106 -85q-9 0 -58 45.5t-49 54.5t47.5 51t57.5 42q12 0 108 -84q91 84 99 84q11 0 59 -41.5t48 -51.5zM553 -404q0 -9 -48 -54t-57 -45q-10 0 -58 44.5t-48 53.5t49 50t60 41q12 0 57 -39.5t45 -50.5z
M841 396q0 -24 -23.5 -94t-37.5 -86q-8 -9 -76 -9q-117 0 -331.5 -103t-330.5 -103h-71v204h104q98 0 219 37l185 58l-129 53q-107 43 -137 43q-40 0 -69 -16q-41 -23 -48 -24q-21 -3 -21 24q0 39 41 106q58 95 149 95q71 0 135 -35l158 -88q60 -33 177 -42
q102 -8 104 -11.5t2 -8.5z" />
    <glyph glyph-name="uFB7D" unicode="&#x686;" horiz-adv-x="995" arabic-form="medial" 
d="M706 -199q0 -8 -48.5 -54.5t-56.5 -46.5q-13 0 -103 87q-91 -85 -104 -85q-9 0 -59 45t-50 54t48 51t58 42q12 0 108 -85q89 85 98 85q12 0 60.5 -41.5t48.5 -51.5zM597 -400q0 -9 -48 -54t-57 -45q-11 0 -58 44t-47 54q0 9 48 50t59 41q12 0 57.5 -39.5t45.5 -50.5z
M1025 1h-84q-105 0 -159 90q-35 58 -58 186q-148 -29 -357 -160q-185 -116 -308 -116h-88v204h101q118 0 257 61q5 2 201 86q-30 4 -142 32q-95 24 -140 24q-50 0 -134 -59q-20 0 -20 20q0 52 48 127q62 98 154 98q71 0 218.5 -50t221.5 -50q135 0 159 6q19 5 25 -0.5
t3 -25.5q-12 -80 -35 -162q-40 -13 -113 -19q0 -65 71 -82q25 -6 119 -6h60v-204z" />
    <glyph glyph-name="u062D" unicode="&#x62d;" horiz-adv-x="1035" arabic-form="isolated" 
d="M1233 -594q0 -29 -68 -57q-27 -10 -97 -39q-57 -25 -111 -53q-84 -30 -193 -30q-264 0 -414 114q-168 127 -168 384q0 161 61 310q84 205 265 326q-37 16 -112 16q-58 0 -96 -26q-20 -14 -44 -47q-19 -26 -33 -26q-26 0 -13 48q29 105 66 157q64 90 183 90q73 0 217 -18
t217 -18q61 0 114 7q17 2 21 -3q1 -3 1 -6q0 -6 -3 -18q-5 -20 -39 -98q-37 -85 -45 -85q-300 0 -491 -173q-170 -154 -170 -348q0 -387 580 -387h185q24 0 72.5 5.5t72.5 5.5q42 0 42 -31z" />
    <glyph glyph-name="uFEA2" unicode="&#x62d;" horiz-adv-x="1083" arabic-form="final" 
d="M1026 205h88v-204h-88q-117 0 -178 23q-91 34 -109 128q-5 26 -10 172q-179 -44 -309 -184q-139 -149 -139 -327q0 -237 155 -323q123 -68 425 -68h185q25 0 74.5 6.5t74.5 6.5q38 0 38 -29t-68 -57q-27 -10 -97 -39q-12 -5 -112 -55q-83 -32 -192 -32q-270 0 -403 87
q-179 117 -179 415q0 393 321 639q-36 16 -114 16q-62 0 -117 -51.5t-51 -51.5q-21 0 -8 62q50 234 246 234q67 0 200.5 -16.5t200.5 -16.5q58 0 105 6q16 2 20 -4q6 -12 -42 -120q-36 -82 -43 -82q-72 0 -117 -5q-3 -18 -3 -32q0 -65 67 -85q44 -13 179 -13z" />
    <glyph glyph-name="uFEA3" unicode="&#x62d;" horiz-adv-x="844" arabic-form="initial" 
d="M841 396q0 -24 -23.5 -94t-37.5 -86q-8 -9 -76 -9q-117 0 -331.5 -103t-330.5 -103h-71v204h104q98 0 219 37l185 58l-129 53q-107 43 -137 43q-40 0 -69 -16q-41 -23 -48 -24q-21 -3 -21 24q0 39 41 106q58 95 149 95q71 0 135 -35l158 -88q60 -33 177 -42
q102 -8 104 -11.5t2 -8.5z" />
    <glyph glyph-name="uFEA4" unicode="&#x62d;" horiz-adv-x="995" arabic-form="medial" 
d="M1025 1h-84q-105 0 -159 90q-35 58 -58 186q-148 -29 -357 -160q-185 -116 -308 -116h-88v204h101q118 0 257 61q5 2 201 86q-30 4 -142 32q-95 24 -140 24q-50 0 -134 -59q-20 0 -20 20q0 52 48 127q62 98 154 98q71 0 218.5 -50t221.5 -50q135 0 159 6q19 5 25 -0.5
t3 -25.5q-12 -80 -35 -162q-40 -13 -113 -19q0 -65 71 -82q25 -6 119 -6h60v-204z" />
    <glyph glyph-name="u062E" unicode="&#x62e;" horiz-adv-x="1035" arabic-form="isolated" 
d="M722 921q0 -13 -59.5 -65.5t-72.5 -52.5q-6 0 -65 58.5t-59 64.5q0 5 59.5 60.5t66.5 55.5q10 0 70 -56t60 -65zM1233 -594q0 -29 -68 -57q-27 -10 -97 -39q-2 -1 -112 -53q-83 -30 -192 -30q-264 0 -414 114q-168 127 -168 384q0 161 61 310q84 205 265 326
q-37 16 -112 16q-58 0 -96 -26q-20 -14 -44 -47q-19 -26 -33 -26q-26 0 -13 48q29 105 66 157q64 90 183 90q73 0 217 -18t217 -18q61 0 114 7q17 2 21 -3q1 -3 1 -6q0 -6 -3 -18q-5 -20 -39 -98q-37 -85 -45 -85q-300 0 -491 -173q-170 -154 -170 -348q0 -387 580 -387h185
q24 0 72.5 5.5t72.5 5.5q42 0 42 -31z" />
    <glyph glyph-name="uFEA6" unicode="&#x62e;" horiz-adv-x="1083" arabic-form="final" 
d="M736 891q0 -14 -60 -67t-74 -53q-7 0 -66.5 58.5t-59.5 65.5q0 4 61 60t68 56q8 0 69.5 -56.5t61.5 -63.5zM1026 205h88v-204h-88q-117 0 -178 23q-91 34 -109 128q-5 26 -10 172q-179 -44 -309 -184q-139 -149 -139 -327q0 -237 155 -323q123 -68 425 -68h185
q25 0 74.5 6.5t74.5 6.5q38 0 38 -29t-68 -57q-27 -10 -97 -39q-12 -5 -112 -55q-83 -32 -192 -32q-270 0 -403 87q-179 117 -179 415q0 393 321 639q-36 16 -114 16q-62 0 -117 -51.5t-51 -51.5q-21 0 -8 62q50 234 246 234q67 0 200.5 -16.5t200.5 -16.5q58 0 105 6
q16 2 20 -4q6 -12 -42 -120q-36 -82 -43 -82q-72 0 -117 -5q-3 -18 -3 -32q0 -65 67 -85q44 -13 179 -13z" />
    <glyph glyph-name="uFEA7" unicode="&#x62e;" horiz-adv-x="844" arabic-form="initial" 
d="M444 909q0 -12 -60.5 -65t-73.5 -53q-6 0 -65 58t-59 64t60.5 61.5t67.5 55.5q10 0 70 -56t60 -65zM841 396q0 -24 -23.5 -94t-37.5 -86q-8 -9 -76 -9q-117 0 -331.5 -103t-330.5 -103h-71v204h104q98 0 219 37l185 58l-129 53q-107 43 -137 43q-40 0 -69 -16
q-41 -23 -48 -24q-21 -3 -21 24q0 39 41 106q58 95 149 95q71 0 135 -35l158 -88q60 -33 177 -42q102 -8 104 -11.5t2 -8.5z" />
    <glyph glyph-name="uFEA8" unicode="&#x62e;" horiz-adv-x="995" arabic-form="medial" 
d="M522 900q0 -12 -59.5 -64t-71.5 -52q-8 0 -67 57.5t-59 65.5q0 4 60.5 60.5t65.5 56.5q10 0 70.5 -57.5t60.5 -66.5zM1025 1h-84q-105 0 -159 90q-35 58 -58 186q-148 -29 -357 -160q-185 -116 -308 -116h-88v204h101q118 0 257 61q5 2 201 86q-30 4 -142 32
q-95 24 -140 24q-50 0 -134 -59q-20 0 -20 20q0 52 48 127q62 98 154 98q71 0 218.5 -50t221.5 -50q135 0 159 6q19 5 25 -0.5t3 -25.5q-12 -80 -35 -162q-40 -13 -113 -19q0 -65 71 -82q25 -6 119 -6h60v-204z" />
    <glyph glyph-name="u062F" unicode="&#x62f;" horiz-adv-x="662" arabic-form="isolated" 
d="M380 -8q-198 0 -198 82q0 179 26 179q8 0 14 -16q7 -36 116 -36q59 0 147 12q109 15 131 37q-27 96 -123 167q-73 54 -104 54q-8 0 -23 -2.5t-23 -2.5q-14 0 -14 144q0 118 14 118q35 0 93 -38q42 -27 62 -47q163 -159 163 -355q0 -296 -281 -296z" />
    <glyph glyph-name="uFEAA" unicode="&#x62f;" horiz-adv-x="911" arabic-form="final" 
d="M930 1h-60q-86 0 -143 82q-24 34 -57 120l-51 -92q-79 -139 -268 -139q-177 0 -173 117q2 34 8 120q2 34 13 34q10 0 20 -30q14 -42 95 -42q101 0 206 28q120 32 132 80l-94 381l30 113q9 32 14 32q6 0 15 -32l121 -443q19 -68 52.5 -96.5t102.5 -28.5h37v-204z" />
    <glyph glyph-name="u0630" unicode="&#x630;" horiz-adv-x="662" arabic-form="isolated" 
d="M456 1078q0 -11 -60.5 -63.5t-73.5 -52.5q-5 0 -64 58.5t-59 64.5t60 61.5t67 55.5q11 0 70.5 -57t59.5 -67zM380 -8q-198 0 -198 82q0 179 26 179q8 0 14 -16q7 -36 116 -36q59 0 147 12q109 15 131 37q-27 96 -123 167q-73 54 -104 54q-8 0 -23 -2.5t-23 -2.5
q-14 0 -14 144q0 118 14 118q35 0 93 -38q42 -27 62 -47q163 -159 163 -355q0 -296 -281 -296z" />
    <glyph glyph-name="uFEAC" unicode="&#x630;" horiz-adv-x="911" arabic-form="final" 
d="M930 1h-60q-86 0 -143 82q-24 34 -57 120l-51 -92q-79 -139 -268 -139q-177 0 -173 117q2 34 8 120q2 34 13 34q10 0 20 -30q14 -42 95 -42q101 0 206 28q120 32 132 80l-94 381l30 113q9 32 14 32q6 0 15 -32l121 -443q19 -68 52.5 -96.5t102.5 -28.5h37v-204zM689 1134
q0 -13 -60.5 -65.5t-74.5 -52.5q-5 0 -64 58.5t-59 64.5q0 5 60.5 61t66.5 56q9 0 70 -57t61 -65z" />
    <glyph glyph-name="u0631" unicode="&#x631;" horiz-adv-x="804" arabic-form="isolated" 
d="M805 193q0 -101 -54 -238q-45 -114 -90 -175q-91 -123 -214 -123q-69 0 -181 26q-134 31 -186 75q-6 5 -6 9q0 11 74 11h104q107 0 219 58q106 55 178 141q52 62 59 73q28 42 28 81q0 35 -47 86q-38 42 -76 65q43 181 52 181q4 -1 8 -4q70 -65 95 -108q37 -64 37 -158z
" />
    <glyph glyph-name="uFEAE" unicode="&#x631;" horiz-adv-x="809" arabic-form="final" 
d="M839 1h-47q-77 0 -87 -34q-104 -371 -318 -371q-74 0 -150 37q-33 16 -117 70q-40 26 -40 41q0 13 28 11l45 -10q41 -9 108 -9q112 0 223 80q43 31 96 83q68 67 68 94q0 26 -84 145q-2 6 29 126q6 22 20 11q88 -70 178 -70h48v-204z" />
    <glyph glyph-name="u0632" unicode="&#x632;" horiz-adv-x="807" arabic-form="isolated" 
d="M698 801q0 -13 -59 -65t-72 -52q-6 0 -65 57.5t-59 63.5t60 61.5t67 55.5q10 0 69 -56t59 -65zM805 193q0 -101 -54 -238q-45 -114 -90 -175q-91 -123 -214 -123q-69 0 -181 26q-134 31 -186 75q-6 5 -6 9q0 11 74 11h104q107 0 219 58q106 55 178 141q52 62 59 73
q28 42 28 81q0 35 -47 86q-38 42 -76 65q43 181 52 181q4 -1 8 -4q70 -65 95 -108q37 -64 37 -158z" />
    <glyph glyph-name="uFEB0" unicode="&#x632;" horiz-adv-x="810" arabic-form="final" 
d="M658 630q0 -13 -59.5 -65.5t-73.5 -52.5q-6 0 -65.5 58.5t-59.5 64.5q0 5 60 61t67 56q10 0 70.5 -56.5t60.5 -65.5zM839 1h-47q-77 0 -87 -34q-104 -371 -318 -371q-74 0 -150 37q-33 16 -117 70q-40 26 -40 41q0 13 28 11l45 -10q41 -9 108 -9q112 0 223 80
q43 31 96 83q68 67 68 94q0 26 -84 145q-2 6 29 126q6 22 20 11q88 -70 178 -70h48v-204z" />
    <glyph glyph-name="u0698" unicode="&#x698;" horiz-adv-x="807" arabic-form="isolated" 
d="M369 761q0 8 49 55t58 47q11 0 100 -87q91 83 106 83q10 0 59.5 -44.5t49.5 -53.5q0 -8 -49.5 -50.5t-58.5 -42.5q-12 0 -108 84q-89 -84 -99 -84t-58.5 41.5t-48.5 51.5zM480 962q0 8 47.5 53t55.5 45q11 0 59 -44t48 -54q0 -9 -49.5 -50t-60.5 -41t-55.5 40.5
t-44.5 50.5zM805 193q0 -101 -54 -238q-45 -114 -90 -175q-91 -123 -214 -123q-69 0 -181 26q-134 31 -186 75q-6 5 -6 9q0 11 74 11h104q107 0 219 58q106 55 178 141q52 62 59 73q28 42 28 81q0 35 -47 86q-38 42 -76 65q43 181 52 181q4 -1 8 -4q70 -65 95 -108
q37 -64 37 -158z" />
    <glyph glyph-name="uFB8B" unicode="&#x698;" horiz-adv-x="810" arabic-form="final" 
d="M350 574q0 9 48.5 55.5t57.5 46.5q12 0 102 -86q89 84 104 84q10 0 59.5 -45.5t49.5 -54.5q0 -8 -49 -50t-57 -42q-12 0 -109 85q-89 -85 -97 -85q-11 0 -60 41.5t-49 50.5zM459 776q0 8 48 53.5t56 45.5q11 0 59 -44t48 -54q0 -9 -48.5 -50.5t-59.5 -41.5
q-12 0 -57.5 40t-45.5 51zM839 1h-47q-77 0 -87 -34q-104 -371 -318 -371q-74 0 -150 37q-33 16 -117 70q-40 26 -40 41q0 13 28 11l45 -10q41 -9 108 -9q112 0 223 80q43 31 96 83q68 67 68 94q0 26 -84 145q-2 6 29 126q6 22 20 11q88 -70 178 -70h48v-204z" />
    <glyph glyph-name="u0633" unicode="&#x633;" horiz-adv-x="1610" arabic-form="isolated" 
d="M1609 314q0 -91 -30 -182q-41 -124 -111 -124q-39 0 -100 33q-24 13 -70 41l-61.5 -52.5t-95.5 -37.5q-53 0 -158 17q-6 -60 -23 -156q-41 -135 -107 -190q-144 -121 -318 -121q-353 0 -353 308q0 112 53 233q47 107 70 107q17 0 17 -23q0 -24 -26 -98t-26 -114
q0 -112 98 -166q77 -43 199 -43q120 0 213 31q131 44 131 136q0 64 -84 271q10 17 62 128q14 30 19 30q4 -2 10 -14q46 -88 58 -99q39 -38 134 -38q113 0 162 63q10 12 39 87q15 39 33 39q24 0 18 -27q-22 -97 -22 -82q0 -22 69 -48q63 -24 91 -24q41 0 41 39q0 40 -32 88
l52 90q12 21 18 21t15 -24q15 -40 15 -99z" />
    <glyph glyph-name="uFEB2" unicode="&#x633;" horiz-adv-x="1774" arabic-form="final" 
d="M1268 57q-20 -16 -50 -37q-40 -28 -77 -28q-53 0 -158 17q-9 -72 -23 -159q-35 -122 -105 -187q-130 -121 -320 -121q-353 0 -353 308q0 112 53 233q47 107 70 107q17 0 17 -23q0 -24 -26 -98t-26 -114q0 -112 98 -166q77 -43 199 -43q120 0 213 31q131 44 131 136
q0 64 -84 271q10 17 62 128q14 30 20 30q5 -2 11 -14q40 -81 59 -98q40 -37 135 -37q113 0 163 62q14 17 38 86q14 40 33 40q14 0 14 -22q0 -6 -1 -14q-19 -65 -19 -91q0 -20 60 -37q50 -14 79 -14q36 0 64 50l35 81q17 39 36 39q10 0 10 -18q0 -12 -5 -35t-5 -35
q0 -80 122 -80h66v-204h-66q-89 0 -185 64q-56 -65 -115 -65q-61 0 -170 57z" />
    <glyph glyph-name="uFEB3" unicode="&#x633;" horiz-adv-x="916" arabic-form="initial" 
d="M415 193q103 0 157 62q21 24 45 86q15 39 33 39q22 0 16 -27l-12 -53q-8 -37 -8 -29q0 -17 69 -45q65 -27 89 -27q42 0 42 39q0 41 -33 88l53 90q13 22 18 22q6 0 15 -25q15 -42 15 -99q0 -104 -34 -188q-43 -106 -115 -106q-41 0 -99 33q-16 9 -72 43l-46 -54
q-45 -38 -133 -38q-117 0 -213 78q-93 -81 -172 -81h-60v204h85q84 0 119 41q10 12 31 69q16 44 32 44t16 -70q0 -61 51 -82q34 -14 111 -14z" />
    <glyph glyph-name="uFEB4" unicode="&#x633;" horiz-adv-x="1113" arabic-form="medial" 
d="M230 78q-77 -77 -169 -77h-91v204h119q73 0 106 26t46 97q10 33 28 33q20 0 20 -26q0 -63 14 -77q57 -57 169 -57q101 0 146 58q6 7 36 82q16 40 40 40q14 0 14 -19q0 -7 -2 -17q-24 -68 -24 -91q0 -20 61 -37q50 -14 79 -14q54 0 93 131q13 42 39 42q10 0 10 -16
q0 -12 -6.5 -36.5t-6.5 -36.5q0 -82 125 -82h67v-204h-67q-70 0 -193 64q9 0 9 -4q0 -7 -37 -28q-56 -33 -75 -33q-45 0 -154 57q-99 -61 -148 -61q-133 0 -248 82z" />
    <glyph glyph-name="u0634" unicode="&#x634;" horiz-adv-x="1612" arabic-form="isolated" 
d="M1102 727q0 8 48.5 54t57.5 46q11 0 100 -86q91 85 106 85q9 0 59.5 -45.5t50.5 -53.5q0 -9 -48.5 -51.5t-58.5 -42.5q-14 0 -110 84q-89 -84 -98 -84q-11 0 -59 42t-48 52zM1212 927q0 9 47 53.5t56 44.5q10 0 58.5 -43.5t48.5 -52.5q0 -11 -48.5 -51t-61.5 -40
q-10 0 -55 40t-45 49zM1609 314q0 -91 -30 -182q-41 -124 -111 -124q-39 0 -100 33q-24 13 -70 41l-61.5 -52.5t-95.5 -37.5q-53 0 -158 17q-6 -60 -23 -156q-41 -135 -107 -190q-144 -121 -318 -121q-353 0 -353 308q0 112 53 233q47 107 70 107q17 0 17 -23q0 -24 -26 -98
t-26 -114q0 -112 98 -166q77 -43 199 -43q120 0 213 31q131 44 131 136q0 64 -84 271q10 17 62 128q14 30 19 30q4 -2 10 -14q46 -88 58 -99q39 -38 134 -38q113 0 162 63q10 12 39 87q15 39 33 39q24 0 18 -27q-22 -97 -22 -82q0 -22 69 -48q63 -24 91 -24q41 0 41 39
q0 40 -32 88l52 90q12 21 18 21t15 -24q15 -40 15 -99z" />
    <glyph glyph-name="uFEB6" unicode="&#x634;" horiz-adv-x="1774" arabic-form="final" 
d="M1128 697q0 10 47.5 57t57.5 47q12 0 102 -86q91 83 104 83q11 0 60 -45.5t49 -55.5q0 -7 -48.5 -49t-57.5 -42q-11 0 -107 86q-90 -86 -100 -86t-58.5 41.5t-48.5 49.5zM1238 900q0 8 47 53t55 45q11 0 59.5 -44t48.5 -54q0 -9 -49 -50t-60 -41t-56 40.5t-45 50.5z
M1268 57q-20 -16 -50 -37q-40 -28 -77 -28q-53 0 -158 17q-9 -72 -23 -159q-35 -122 -105 -187q-130 -121 -320 -121q-353 0 -353 308q0 112 53 233q47 107 70 107q17 0 17 -23q0 -24 -26 -98t-26 -114q0 -112 98 -166q77 -43 199 -43q120 0 213 31q131 44 131 136
q0 64 -84 271q10 17 62 128q14 30 20 30q5 -2 11 -14q40 -81 59 -98q40 -37 135 -37q113 0 163 62q14 17 38 86q14 40 33 40q14 0 14 -22q0 -6 -1 -14q-19 -65 -19 -91q0 -20 60 -37q50 -14 79 -14q36 0 64 50l35 81q17 39 36 39q10 0 10 -18q0 -12 -5 -35t-5 -35
q0 -80 122 -80h66v-204h-66q-89 0 -185 64q-56 -65 -115 -65q-61 0 -170 57z" />
    <glyph glyph-name="uFEB7" unicode="&#x634;" horiz-adv-x="916" arabic-form="initial" 
d="M373 692q0 8 49 54.5t57 46.5q12 0 102 -86q89 83 104 83q9 0 59 -45t50 -53q0 -9 -48 -51.5t-58 -42.5q-13 0 -109 86q-89 -86 -97 -86q-12 0 -60.5 41.5t-48.5 52.5zM483 892q0 9 47.5 53.5t56.5 44.5t57.5 -43.5t48.5 -51.5q0 -11 -48.5 -52t-61.5 -41q-11 0 -55.5 40
t-44.5 50zM415 193q103 0 157 62q21 24 45 86q15 39 33 39q22 0 16 -27l-12 -53q-8 -37 -8 -29q0 -17 69 -45q65 -27 89 -27q42 0 42 39q0 41 -33 88l53 90q13 22 18 22q6 0 15 -25q15 -42 15 -99q0 -104 -34 -188q-43 -106 -115 -106q-41 0 -99 33q-16 9 -72 43l-46 -54
q-45 -38 -133 -38q-117 0 -213 78q-93 -81 -172 -81h-60v204h85q84 0 119 41q10 12 31 69q16 44 32 44t16 -70q0 -61 51 -82q34 -14 111 -14z" />
    <glyph glyph-name="uFEB8" unicode="&#x634;" horiz-adv-x="1113" arabic-form="medial" 
d="M482 664q0 8 47.5 54.5t55.5 46.5q12 0 104 -87q89 86 104 86q10 0 58.5 -45.5t48.5 -54.5t-48 -51.5t-57 -42.5q-11 0 -107 86q-91 -86 -99 -86q-11 0 -59 42t-48 52zM590 864q0 8 48 53t56 45q10 0 58.5 -43t48.5 -52q0 -10 -49 -51t-60 -41t-56.5 39.5t-45.5 49.5z
M230 78q-77 -77 -169 -77h-91v204h119q73 0 106 26t46 97q10 33 28 33q20 0 20 -26q0 -63 14 -77q57 -57 169 -57q101 0 146 58q6 7 36 82q16 40 40 40q14 0 14 -19q0 -7 -2 -17q-24 -68 -24 -91q0 -20 61 -37q50 -14 79 -14q54 0 93 131q13 42 39 42q10 0 10 -16
q0 -12 -6.5 -36.5t-6.5 -36.5q0 -82 125 -82h67v-204h-67q-70 0 -193 64q9 0 9 -4q0 -7 -37 -28q-56 -33 -75 -33q-45 0 -154 57q-99 -61 -148 -61q-133 0 -248 82z" />
    <glyph glyph-name="u0635" unicode="&#x635;" horiz-adv-x="1916" arabic-form="isolated" 
d="M1002 7q0 -88 -32 -170q-50 -129 -174 -202q-116 -68 -261 -68q-353 0 -353 310q0 111 55 232q49 107 73 107q19 0 19 -23t-27 -97.5t-27 -114.5q0 -111 95 -166q77 -45 197 -45q119 0 220 34q137 46 137 136q0 66 -97 244q-5 10 51 133q13 29 19 29q5 -2 10 -12
q64 -129 167 -129q43 0 105 72q183 212 413 309q95 40 142 40q50 0 106 -37q70 -46 70 -118q0 -159 -171 -296q-217 -174 -598 -174q-49 0 -139 6zM1779 353q0 43 -85 66q-58 16 -117 16q-129 0 -396 -230q132 3 336 18q130 23 204 69q58 36 58 61z" />
    <glyph glyph-name="uFEBA" unicode="&#x635;" horiz-adv-x="1930" arabic-form="final" 
d="M1781 349q0 25 -50 49q-61 29 -151 29q-131 0 -420 -240q388 0 562 101q59 34 59 61zM1002 1q0 -82 -32 -164q-51 -131 -171.5 -207t-263.5 -76q-353 0 -353 310q0 111 55 232q49 107 73 107q19 0 19 -23t-27 -97.5t-27 -114.5q0 -112 95 -166q77 -44 197 -44
q113 0 220 40q137 51 137 142q0 51 -37 121q-6 12 -67 112q6 20 49 133q11 29 19 29q5 0 12 -13q63 -125 157 -125q41 0 88 53q87 98 225 201q107 80 223 128q96 40 144 40q49 0 104 -36q71 -46 71 -117q0 -137 -162 -279q81 18 147 18h63v-204h-170q-60 0 -180 5.5
t-180 5.5q-48 0 -144.5 -5.5t-144.5 -5.5h-139z" />
    <glyph glyph-name="uFEBB" unicode="&#x635;" horiz-adv-x="1253" arabic-form="initial" 
d="M1251 466q0 -158 -171 -296q-216 -174 -597 -174q-236 0 -281 123q-67 -118 -171 -118h-61v204h69q144 0 160 95q3 18 19 18q12 0 15 -15q10 -53 76 -87q50 -26 87 -26q36 0 86 57q88 101 228 204q107 79 224 128q95 40 143 40q49 0 104 -36q70 -46 70 -117zM1121 349
q0 26 -49 49q-61 29 -152 29q-130 0 -421 -240q391 0 563 101q59 35 59 61z" />
    <glyph glyph-name="uFEBC" unicode="&#x635;" horiz-adv-x="1263" arabic-form="medial" 
d="M1116 349q0 25 -50 49q-61 29 -152 29q-129 0 -420 -240q389 0 563 101q59 34 59 61zM1294 205v-204h-190q-46 0 -137.5 5.5t-137.5 5.5q-59 0 -175.5 -5.5t-175.5 -5.5q-206 0 -281 118q-80 -118 -166 -118h-61v204h63q144 0 161 95q3 18 17 18q12 0 15 -15
q10 -54 76 -87q52 -26 89 -26q36 0 86 57q89 101 227 204q105 78 224 128q96 40 143 40q50 0 105 -36q70 -46 70 -117q0 -136 -161 -279q81 18 147 18h62z" />
    <glyph glyph-name="u0636" unicode="&#x636;" horiz-adv-x="1916" arabic-form="isolated" 
d="M1002 7q0 -88 -32 -170q-50 -129 -174 -202q-116 -68 -261 -68q-353 0 -353 310q0 111 55 232q49 107 73 107q19 0 19 -23t-27 -97.5t-27 -114.5q0 -111 95 -166q77 -45 197 -45q119 0 220 34q137 46 137 136q0 66 -97 244q-5 10 51 133q13 29 19 29q5 -2 10 -12
q64 -129 167 -129q43 0 105 72q183 212 413 309q95 40 142 40q50 0 106 -37q70 -46 70 -118q0 -159 -171 -296q-217 -174 -598 -174q-49 0 -139 6zM1779 353q0 43 -85 66q-58 16 -117 16q-129 0 -396 -230q132 3 336 18q130 23 204 69q58 36 58 61zM1439 813
q0 -13 -59.5 -66t-72.5 -53q-5 0 -64 58.5t-59 64.5q0 5 59 61t65 56q9 0 70 -56.5t61 -64.5z" />
    <glyph glyph-name="uFEBE" unicode="&#x636;" horiz-adv-x="1930" arabic-form="final" 
d="M1781 349q0 40 -86 62q-62 16 -115 16q-131 0 -420 -240q388 0 562 101q59 34 59 61zM1002 1q0 -82 -32 -164q-51 -131 -171.5 -207t-263.5 -76q-353 0 -353 310q0 111 55 232q49 107 73 107q19 0 19 -23t-27 -97.5t-27 -114.5q0 -112 95 -166q77 -44 197 -44
q113 0 220 40q137 51 137 142q0 51 -37 121q-6 12 -67 112q6 20 49 133q11 29 19 29q5 0 12 -13q63 -125 157 -125q41 0 88 53q87 98 225 201q107 80 223 128q96 40 144 40q49 0 104 -36q71 -46 71 -117q0 -137 -162 -279q81 18 147 18h56v-204h-163q-60 0 -180 5.5
t-180 5.5q-48 0 -144.5 -5.5t-144.5 -5.5h-139zM1417 823q0 -13 -60 -64.5t-74 -51.5q-5 0 -64 58.5t-59 64.5q0 5 60 60.5t67 55.5q10 0 70 -57t60 -66z" />
    <glyph glyph-name="uFEBF" unicode="&#x636;" horiz-adv-x="1253" arabic-form="initial" 
d="M899 867q0 -13 -59.5 -66t-72.5 -53q-6 0 -65.5 58.5t-59.5 64.5q0 5 60 60.5t66 55.5q9 0 70 -56t61 -64zM1251 466q0 -158 -171 -296q-216 -174 -597 -174q-236 0 -281 123q-67 -118 -171 -118h-61v204h69q144 0 160 95q3 18 19 18q12 0 15 -15q10 -53 76 -87
q50 -26 87 -26q36 0 86 57q88 101 228 204q107 79 224 128q95 40 143 40q49 0 104 -36q70 -46 70 -117zM1121 349q0 25 -50 49q-61 29 -151 29q-130 0 -421 -240q391 0 563 101q59 35 59 61z" />
    <glyph glyph-name="uFEC0" unicode="&#x636;" horiz-adv-x="1263" arabic-form="medial" 
d="M898 871q0 -13 -60 -66t-74 -53q-6 0 -65 58.5t-59 64.5q0 5 60 60t67 55q9 0 70 -56t61 -63zM1116 349q0 25 -50 49q-61 29 -152 29q-129 0 -420 -240q389 0 563 101q59 34 59 61zM1294 205v-204h-190q-46 0 -137.5 5.5t-137.5 5.5q-59 0 -175.5 -5.5t-175.5 -5.5
q-206 0 -281 118q-80 -118 -166 -118h-61v204h63q144 0 161 95q3 18 17 18q12 0 15 -15q10 -54 76 -87q52 -26 89 -26q36 0 86 57q89 101 227 204q105 78 224 128q96 40 143 40q50 0 105 -36q70 -46 70 -117q0 -136 -161 -279q81 18 147 18h62z" />
    <glyph glyph-name="u0637" unicode="&#x637;" horiz-adv-x="1377" arabic-form="isolated" 
d="M1258 349q0 41 -87 66q-64 18 -119 18q-97 0 -249 -105q-103 -71 -155 -125q11 -3 44 -3q43 0 119 5q137 9 191 21q72 16 143 43q113 43 113 80zM472 1q-105 0 -265 162q-24 24 -24 30q23 4 159 4h162q92 0 154 72q53 62 59 135q1 12 1 161q0 42 -6 115q-5 59 -11 146
q-2 62 -8 145q-63 91 -63 107q0 15 45.5 101t60.5 102q23 24 32 24t9 -24q0 -12 -4 -64q-2 -27 4 -41q14 -33 62 -55q43 -19 43 -33q0 -74 -52 -151l-31 -12q21 -207 21 -283q0 -143 -20 -213q273 189 388 189q56 0 116 -39q73 -48 73 -117q0 -117 -86 -223
q-75 -94 -191 -149q-186 -89 -481 -89h-147z" />
    <glyph glyph-name="uFEC2" unicode="&#x637;" horiz-adv-x="1402" arabic-form="final" 
d="M1254 345q0 41 -88 66q-64 18 -119 18q-96 0 -249 -103q-110 -74 -155 -125q39 -8 175 1q130 9 179 20q71 16 143 44q114 44 114 79zM469 1q-127 18 -263 158q-24 25 -25 31q-1 9 26 9q5 0 133 -8l162 8q83 4 143 61.5t66 139.5q4 55 4 162q-6 80 -18 261q-2 40 -10 146
q-62 94 -62 109q0 14 44.5 99t59.5 103q23 22 33 22t10 -24q0 -22 -4 -63q-3 -28 4 -42q15 -31 62 -54q42 -20 42 -34q0 -76 -51 -151l-33 -12q24 -208 24 -283q0 -136 -21 -213q272 189 386 189q57 0 119 -40q73 -47 73 -117q0 -136 -153 -277q87 24 150 24h62v-204h-328
q-106 15 -144 15q6 0 -153 -15q-202 -19 -338 0z" />
    <glyph glyph-name="uFEC3" unicode="&#x637;" horiz-adv-x="895" arabic-form="initial" 
d="M891 458q0 -116 -86 -222q-76 -94 -191 -149q-84 -40 -262 -65q-149 -21 -272 -21h-110v204h49q84 0 144.5 55.5t66.5 139.5q3 42 3 162q0 -44 -18 261q-2 40 -9 146q-63 96 -63 109q0 14 46 102t59 100q23 22 32 23q10 0 10 -25q0 -13 -4 -64q-2 -26 4 -41
q13 -31 62 -54q43 -20 43 -34q0 -76 -51 -151l-33 -12q23 -208 23 -283q0 -133 -20 -213q272 189 386 189q56 0 118 -40q73 -47 73 -117zM773 345q0 42 -88 66q-65 18 -120 18q-96 0 -248 -103q-114 -77 -155 -125q12 -3 46 -3q49 0 119 4q134 8 188 20q121 28 198 70
q60 33 60 53z" />
    <glyph glyph-name="uFEC4" unicode="&#x637;" horiz-adv-x="921" arabic-form="medial" 
d="M767 345q0 43 -87 67q-62 17 -120 17q-97 0 -249 -103q-114 -77 -155 -125q13 -3 47 -3q47 0 118 4q135 8 189 20q71 16 143 44q114 44 114 79zM-30 1v204h43q84 0 144 56t66 139q3 42 3 162q0 37 -7 123q-9 110 -10 138q-3 71 -8 146q-63 96 -63 109q0 14 44.5 99
t59.5 103q24 22 33 22q10 0 10 -24q0 -11 -4 -63q-2 -27 4 -42q13 -31 61 -54q43 -20 43 -34q0 -76 -51 -151l-33 -12q23 -208 23 -283q0 -137 -19 -213q271 189 385 189q57 0 118 -40q73 -48 73 -117q0 -137 -152 -277q87 24 157 24h61v-204h-332q-109 15 -145 15
q-33 0 -154 -15h-350z" />
    <glyph glyph-name="u0638" unicode="&#x638;" horiz-adv-x="1373" arabic-form="isolated" 
d="M1231 895q0 -14 -60 -66.5t-74 -52.5q-4 0 -63.5 58.5t-59.5 63.5t59.5 61t66.5 56q9 0 70 -56.5t61 -63.5zM1258 349q0 41 -87 66q-64 18 -119 18q-97 0 -249 -105q-103 -71 -155 -125q11 -3 44 -3q43 0 119 5q137 9 191 21q72 16 143 43q113 43 113 80zM472 1
q-105 0 -265 162q-24 24 -24 30q23 4 159 4h162q92 0 154 72q53 62 59 135q1 12 1 161q0 42 -6 115q-5 59 -11 146q-2 62 -8 145q-63 91 -63 107q0 15 45.5 101t60.5 102q23 24 32 24t9 -24q0 -12 -4 -64q-2 -27 4 -41q14 -33 62 -55q43 -19 43 -33q0 -74 -52 -151l-31 -12
q21 -207 21 -283q0 -143 -20 -213q273 189 388 189q56 0 116 -39q73 -48 73 -117q0 -117 -86 -223q-75 -94 -191 -149q-186 -89 -481 -89h-147z" />
    <glyph glyph-name="uFEC6" unicode="&#x638;" horiz-adv-x="1405" arabic-form="final" 
d="M1208 855q0 -12 -60.5 -65t-73.5 -53q-6 0 -64.5 58t-58.5 64t59.5 61t66.5 55q10 0 70.5 -55.5t60.5 -64.5zM1254 345q0 41 -88 66q-64 18 -119 18q-96 0 -249 -103q-110 -74 -155 -125q39 -8 175 1q130 9 179 20q71 16 143 44q114 44 114 79zM469 1q-127 18 -263 158
q-24 25 -25 31q-1 9 26 9q5 0 133 -8l162 8q83 4 143 61.5t66 139.5q4 55 4 162q-6 80 -18 261q-2 40 -10 146q-62 94 -62 109q0 14 44.5 99t59.5 103q23 22 33 22t10 -24q0 -22 -4 -63q-3 -28 4 -42q15 -31 62 -54q42 -20 42 -34q0 -76 -51 -151l-33 -12q24 -208 24 -283
q0 -136 -21 -213q272 189 386 189q57 0 119 -40q73 -47 73 -117q0 -136 -153 -277q87 24 150 24h62v-204h-328q-106 15 -144 15q6 0 -153 -15q-202 -19 -338 0z" />
    <glyph glyph-name="uFEC7" unicode="&#x638;" horiz-adv-x="895" arabic-form="initial" 
d="M748 867q0 -13 -59.5 -66t-72.5 -53q-6 0 -66 58.5t-60 64.5q0 5 60.5 60.5t67.5 55.5q9 0 69.5 -56t60.5 -64zM891 458q0 -116 -86 -222q-76 -94 -191 -149q-84 -40 -262 -65q-149 -21 -272 -21h-110v204h49q84 0 144.5 55.5t66.5 139.5q3 42 3 162q0 -44 -18 261
q-2 40 -9 146q-63 96 -63 109q0 14 46 102t59 100q23 22 32 23q10 0 10 -25q0 -13 -4 -64q-2 -26 4 -41q13 -31 62 -54q43 -20 43 -34q0 -76 -51 -151l-33 -12q23 -208 23 -283q0 -133 -20 -213q272 189 386 189q56 0 118 -40q73 -47 73 -117zM773 345q0 42 -88 66
q-65 18 -120 18q-96 0 -248 -103q-114 -77 -155 -125q12 -3 46 -3q49 0 119 4q134 8 188 20q121 28 198 70q60 33 60 53z" />
    <glyph glyph-name="uFEC8" unicode="&#x638;" horiz-adv-x="921" arabic-form="medial" 
d="M755 871q0 -13 -60.5 -66t-73.5 -53q-4 0 -63.5 59t-59.5 64t60 60t67 55q9 0 69.5 -55.5t60.5 -63.5zM767 345q0 43 -87 67q-62 17 -120 17q-97 0 -249 -103q-114 -77 -155 -125q13 -3 47 -3q47 0 118 4q135 8 189 20q71 16 143 44q114 44 114 79zM-30 1v204h43
q84 0 144 56t66 139q3 42 3 162q0 37 -7 123q-9 110 -10 138q-3 71 -8 146q-63 96 -63 109q0 14 44.5 99t59.5 103q24 22 33 22q10 0 10 -24q0 -11 -4 -63q-2 -27 4 -42q13 -31 61 -54q43 -20 43 -34q0 -76 -51 -151l-33 -12q23 -208 23 -283q0 -137 -19 -213
q271 189 385 189q57 0 118 -40q73 -48 73 -117q0 -137 -152 -277q87 24 157 24h61v-204h-332q-109 15 -145 15q-33 0 -154 -15h-350z" />
    <glyph glyph-name="u0639" unicode="&#x639;" horiz-adv-x="930" arabic-form="isolated" 
d="M217 -300q0 158 58 295q41 97 89 143q-181 98 -181 203q0 26 30 192q34 188 208 188q60 0 129 -30q96 -42 96 -74q0 -14 -29 -11q-22 2 -50 2q-130 0 -238 -63q-16 -10 -43 -34q-32 -29 -32 -40q0 -17 78 -84q95 -81 183 -81q42 0 111 48l217 149l4 2q8 0 8 -23
q0 -34 -14 -98l-5 -23q-9 -40 -11 -41q-89 -55 -147 -94q-154 -103 -224 -172q-154 -152 -154 -308q0 -164 161 -239q110 -51 277 -56q18 -4 175 -5q169 -2 278 6q64 4 64 -21q0 -21 -101 -60l-138 -52q-171 -67 -278 -67q-176 0 -302 63q-219 110 -219 385z" />
    <glyph glyph-name="uFECA" unicode="&#x639;" horiz-adv-x="973" arabic-form="final" 
d="M1096 -614q-19 -21 -157 -75l-131 -51q-63 -19 -143 -19q-229 0 -353 112q-130 117 -130 343q0 262 200 499q3 3 94 109q-18 30 -95 35q-69 4 -67 22q12 109 91 167q72 53 185 53q210 0 210 -142q0 -41 -46 -95q-36 -42 -64 -58q46 -81 264 -81h45v-204h-68
q-188 0 -344 225q-96 -55 -184 -169q-119 -155 -119 -318q0 -177 156 -262q123 -67 315 -67q247 0 318 9q33 4 33 -14q0 -8 -10 -19z" />
    <glyph glyph-name="uFECB" unicode="&#x639;" horiz-adv-x="784" arabic-form="initial" 
d="M707 177q-110 -48 -308 -106q-239 -70 -348 -70h-81v204h39q138 0 201 21q-70 60 -70 165q0 107 67 207q76 113 184 113q168 0 255 -142q15 -25 -16 -25q9 0 10 1q-7 5 -49 14q-71 15 -95 15q-68 0 -147 -31q-82 -32 -127 -79q97 -183 233 -183q81 0 307 76q14 5 17 1
q3 -3 -2 -18q-26 -74 -70 -163z" />
    <glyph glyph-name="uFECC" unicode="&#x639;" horiz-adv-x="625" arabic-form="medial" 
d="M47 356q10 107 88 164q72 53 183 53q83 0 144 -33q77 -42 77 -120q0 -72 -114 -156q41 -59 165 -59h65v-204h-80q-126 0 -254 146q-49 -55 -133 -99q-89 -47 -157 -47h-61v204h42q138 0 215 73q-27 17 -85 44l-62 12q-34 7 -33 22z" />
    <glyph glyph-name="u063A" unicode="&#x63a;" horiz-adv-x="930" arabic-form="isolated" 
d="M478 1010q0 -13 -60 -65.5t-73 -52.5q-6 0 -65.5 58.5t-59.5 64.5q0 5 59.5 61t65.5 56q10 0 71.5 -56.5t61.5 -65.5zM217 -300q0 158 58 295q41 97 89 143q-181 98 -181 203q0 26 30 192q34 188 208 188q60 0 129 -30q96 -42 96 -74q0 -14 -29 -11q-22 2 -50 2
q-130 0 -238 -63q-16 -10 -43 -34q-32 -29 -32 -40q0 -17 78 -84q95 -81 183 -81q42 0 111 48l217 149l4 2q8 0 8 -23q0 -34 -14 -98l-5 -23q-9 -40 -11 -41q-89 -55 -147 -94q-154 -103 -224 -172q-154 -152 -154 -308q0 -164 161 -239q110 -51 277 -56q18 -4 175 -5
q169 -2 278 6q64 4 64 -21q0 -21 -101 -60l-138 -52q-171 -67 -278 -67q-176 0 -302 63q-219 110 -219 385z" />
    <glyph glyph-name="uFECE" unicode="&#x63a;" horiz-adv-x="975" arabic-form="final" 
d="M1096 -614q-19 -21 -157 -75l-131 -51q-63 -19 -143 -19q-229 0 -353 112q-130 117 -130 343q0 262 200 499q3 3 94 109q-18 30 -95 35q-69 4 -67 22q12 109 91 167q72 53 185 53q210 0 210 -142q0 -41 -46 -95q-36 -42 -64 -58q24 -43 122 -65q71 -16 142 -16h51v-204
h-74q-188 0 -344 225q-96 -55 -184 -169q-119 -155 -119 -318q0 -177 156 -262q123 -67 315 -67q247 0 318 9q33 4 33 -14q0 -8 -10 -19zM693 881q0 -13 -60.5 -64.5t-73.5 -51.5q-6 0 -65 58t-59 65q0 5 60 60t67 55q11 0 71 -56t60 -66z" />
    <glyph glyph-name="uFECF" unicode="&#x63a;" horiz-adv-x="784" arabic-form="initial" 
d="M478 994q0 -13 -60 -65.5t-73 -52.5q-5 0 -64 58.5t-59 64.5t59 61t67 55q9 0 69.5 -56.5t60.5 -64.5zM707 177q-110 -48 -308 -106q-239 -70 -348 -70h-81v204h39q138 0 201 21q-70 60 -70 165q0 107 67 207q76 113 184 113q168 0 255 -142q15 -25 -16 -25q9 0 10 1
q-7 5 -49 14q-71 15 -95 15q-68 0 -147 -31q-82 -32 -127 -79q97 -183 233 -183q81 0 307 76q14 5 17 1q3 -3 -2 -18q-26 -74 -70 -163z" />
    <glyph glyph-name="uFED0" unicode="&#x63a;" horiz-adv-x="625" arabic-form="medial" 
d="M429 900q0 -12 -61 -64t-74 -52q-7 0 -65 58t-58 65q0 4 59.5 60.5t65.5 56.5q10 0 71.5 -57.5t61.5 -66.5zM47 356q10 107 88 164q72 53 183 53q83 0 144 -33q77 -42 77 -120q0 -72 -114 -156q41 -59 165 -59h65v-204h-80q-126 0 -254 146q-49 -55 -133 -99
q-89 -47 -157 -47h-61v204h42q138 0 215 73q-27 17 -85 44l-62 12q-34 7 -33 22z" />
    <glyph glyph-name="u0641" unicode="&#x641;" horiz-adv-x="1440" arabic-form="isolated" 
d="M1437 422q0 -238 -122 -319q-66 -44 -224 -85q-192 -50 -371 -50q-538 0 -538 318q0 93 48 179q41 74 63 74q17 0 17 -15q0 -4 -20 -59t-20 -88q0 -210 518 -210q142 0 309 30q133 24 174 36q103 30 103 78q0 59 -31 77l-35 -36q-33 -24 -87 -24q-52 0 -85.5 34.5
t-33.5 86.5q0 64 54 167q59 113 116 113q58 0 104 -63q61 -83 61 -244zM1323 499q0 25 -29.5 53.5t-54.5 28.5q-16 0 -40.5 -25.5t-24.5 -41.5q0 -25 23 -42.5t49 -17.5q23 0 48 11q29 14 29 34zM1373 1002q0 -12 -59 -65t-72 -53q-6 0 -65.5 58.5t-59.5 64.5t60 61.5
t67 55.5q10 0 69.5 -56.5t59.5 -65.5z" />
    <glyph glyph-name="uFED2" unicode="&#x641;" horiz-adv-x="1539" arabic-form="final" 
d="M1569 1h-60q-62 0 -143 37q-64 29 -104 62q-273 -133 -598 -133q-188 0 -316 65q-166 84 -166 254q0 54 21 125q25 85 70 129q7 7 14 7q13 0 13 -16q0 -8 -4 -16q-33 -65 -33 -119q0 -118 164 -185q127 -52 263 -52q339 0 485 67q-40 30 -40 110q0 86 75 208
q82 134 161 134q52 0 82 -65q25 -54 25 -117q0 -155 -80 -262q54 -29 109 -29h62v-204zM1406 367q0 36 -24 68q-27 33 -62 33q-31 0 -77.5 -39.5t-46.5 -69.5q0 -24 30 -54t54 -30q30 0 78 32t48 60zM1444 979q0 -13 -60 -66t-74 -53q-4 0 -63 59.5t-59 65.5q0 4 59 59.5
t65 55.5q10 0 71 -56t61 -65z" />
    <glyph glyph-name="uFED3" unicode="&#x641;" horiz-adv-x="475" arabic-form="initial" 
d="M400 987q0 -13 -59.5 -66t-72.5 -53q-5 0 -65 58.5t-60 63.5q0 6 60 62t67 56q9 0 69.5 -56.5t60.5 -64.5zM471 361q0 -213 -117 -297q-88 -63 -268 -63h-115v204h172q75 0 154 14q122 22 122 63q0 14 -10.5 42.5t-19.5 36.5q-65 -61 -142 -61q-64 0 -102 45
q-35 41 -35 107q0 67 35 149q49 115 131 115q85 0 145 -141q50 -117 50 -214zM345 468q0 30 -32 61.5t-62 31.5t-54 -36q-19 -29 -19 -50q0 -45 78 -52q29 -3 55 7q34 12 34 38z" />
    <glyph glyph-name="uFED4" unicode="&#x641;" horiz-adv-x="520" arabic-form="medial" 
d="M134 226q-35 35 -35 110q0 85 78 204q84 129 165 129q54 0 83 -63q23 -50 23 -110q0 -178 -82 -267q42 -24 123 -24h61v-204h-59q-144 0 -244 97q-38 -39 -100 -67q-65 -30 -117 -30h-60v204h45q98 0 119 21zM377 367q0 34 -27.5 67t-60.5 33q-34 0 -80 -37.5t-46 -70.5
q0 -23 31.5 -53.5t55.5 -30.5q31 0 77 31q50 32 50 61zM419 987q0 -13 -59.5 -66t-73.5 -53q-4 0 -63.5 58.5t-59.5 63.5q0 6 59.5 62t66.5 56q9 0 69.5 -56.5t60.5 -64.5z" />
    <glyph glyph-name="u0642" unicode="&#x642;" horiz-adv-x="1132" arabic-form="isolated" 
d="M1128 82q0 -107 -24 -172q-55 -148 -241 -238q-149 -72 -283 -72q-398 0 -398 343q0 89 27 201q35 141 88 174q9 6 19 4q14 -2 14 -19l-28 -82q-29 -85 -29 -154q0 -261 332 -261q115 0 276 64q189 75 189 170q0 52 -36 116q-23 -30 -47 -55q-33 -36 -88 -36
q-147 0 -147 197q0 76 42 166q50 108 117 108q76 0 140 -109q77 -131 77 -345zM983 266q0 24 -34.5 64.5t-57.5 40.5q-20 0 -39 -35q-17 -31 -17 -54q0 -26 21.5 -44t47.5 -18q25 0 49 11q30 13 30 35zM1093 783q0 -10 -49.5 -58t-60.5 -48q-12 0 -107 90q-92 -90 -108 -90
q-10 0 -61.5 48.5t-51.5 57.5q0 8 50 51.5t59 43.5q14 0 115 -86q92 86 102 86q11 0 61.5 -43t50.5 -52z" />
    <glyph glyph-name="uFED6" unicode="&#x642;" horiz-adv-x="1128" arabic-form="final" 
d="M1158 1h-100q-5 -84 -12 -105q-31 -95 -143 -184q-157 -125 -352 -125q-160 0 -258 71q-110 81 -110 236q0 136 43 246q37 94 64 94q16 0 16 -22t-24 -88t-24 -99q0 -122 103 -184q84 -51 215 -51q207 0 367 100q46 29 57 46q14 22 10 72h-103q-190 0 -190 147
q0 81 43 167q52 104 123 104q33 0 52 -11q103 -59 116 -216l47 6h60v-204zM956 194q1 27 -30 59t-58 32q-26 0 -53 -25t-27 -51q0 -35 91 -35q60 0 77 20zM1073 685q0 -9 -49.5 -57.5t-58.5 -48.5q-14 0 -107 91q-95 -90 -110 -90q-9 0 -61.5 48.5t-52.5 56.5t51 53t60 45
q12 0 114 -89q94 89 103 89q12 0 61.5 -43.5t49.5 -54.5z" />
    <glyph glyph-name="uFED7" unicode="&#x642;" horiz-adv-x="479" arabic-form="initial" 
d="M492 955q0 -9 -49.5 -58t-58.5 -49q-14 0 -108 92q-94 -89 -110 -89q-10 0 -61 47.5t-51 56.5t50.5 53.5t60.5 44.5q11 0 112 -88q95 88 103 88q12 0 62 -44t50 -54zM471 361q0 -213 -117 -297q-88 -63 -268 -63h-115v204h172q75 0 154 14q122 22 122 63q0 14 -10.5 42.5
t-19.5 36.5q-65 -61 -142 -61q-64 0 -102 45q-35 41 -35 107q0 67 35 149q49 115 131 115q85 0 145 -141q50 -117 50 -214zM345 468q0 30 -32 61.5t-62 31.5t-54 -36q-19 -29 -19 -50q0 -45 78 -52q29 -3 55 7q34 12 34 38z" />
    <glyph glyph-name="uFED8" unicode="&#x642;" horiz-adv-x="517" arabic-form="medial" 
d="M523 942q0 -9 -50.5 -57.5t-59.5 -48.5q-13 0 -107 91q-94 -91 -109 -91q-11 0 -62 48t-51 58q0 8 50.5 53t59.5 45q12 0 113 -89q95 89 104 89q11 0 61.5 -44.5t50.5 -53.5zM134 226q-35 35 -35 110q0 85 78 204q84 129 165 129q54 0 83 -63q23 -50 23 -110
q0 -178 -82 -267q42 -24 123 -24h61v-204h-59q-144 0 -244 97q-38 -39 -100 -67q-65 -30 -117 -30h-60v204h45q98 0 119 21zM377 367q0 34 -27.5 67t-60.5 33q-34 0 -80 -37.5t-46 -70.5q0 -23 31.5 -53.5t55.5 -30.5q31 0 77 31q50 32 50 61z" />
    <glyph glyph-name="u0643" unicode="&#x643;" horiz-adv-x="1470" arabic-form="isolated" 
d="M1700 1092l-317 -165q-313 -162 -313 -179t49 -42q91 -46 177 -112q134 -103 134 -226q0 -89 -45 -174q-34 -65 -69 -91q-51 -38 -227 -85q-224 -60 -444 -60q-463 0 -463 312q0 152 89 254q6 7 18 2q12 -4 12 -14l-20 -46q-20 -46 -20 -86q0 -108 132 -170
q103 -48 261 -55q41 -2 172 6q172 10 271 26q75 12 146 37q110 39 110 84q0 63 -131 145q-166 104 -180 120q-45 51 -45 121q0 141 120 241q28 23 173 105q62 35 228 120q189 97 195 92q4 -3 -1 -78t-12 -82z" />
    <glyph glyph-name="uFEDA" unicode="&#x6a9;" horiz-adv-x="1948" arabic-form="final" 
d="M646 -45q-464 0 -464 303q0 148 91 252q4 5 10 5q4 0 7 -2q11 -4 11 -14q0 10 -2 10q-5 -7 -16 -48q-18 -71 -18 -93q0 -110 131 -172q110 -52 261 -52q194 0 382 33q300 53 300 164q0 77 -141 162q-157 95 -180 151q-16 39 -16 80q0 128 97 218q45 42 191 124
q246 139 526 262q2 -2 2 -8q0 -65 -28 -161q-78 -31 -393 -197q-342 -180 -342 -204q0 -17 89 -61q137 -68 198 -105q25 -15 314 -232q223 -167 273 -167h49v-202h-69q-83 0 -332 248q-114 113 -171 147q9 -26 9 -58q0 -68 -45 -126q-107 -137 -333 -204q-179 -53 -391 -53z
" />
    <glyph glyph-name="uFEDB" unicode="&#x6a9;" horiz-adv-x="774" arabic-form="initial" 
d="M-30 1v204h173q93 0 176 25q103 31 103 78q0 62 -131 144q-164 103 -180 121q-46 52 -46 121q0 141 121 243q30 25 171 105q41 23 232 121t196 93q1 -4 1 -12q0 -22 -4 -67q-7 -75 -12 -85l-318 -164q-313 -161 -313 -180q0 -18 49 -42q88 -43 177 -112
q134 -103 134 -226q0 -367 -384 -367h-145z" />
    <glyph glyph-name="uFEDC" unicode="&#x6a9;" horiz-adv-x="965" arabic-form="medial" 
d="M421 150q32 48 32 126q0 60 -17 120q44 -24 169 -146q139 -136 174 -166q96 -83 148 -83h69v202h-48q-49 0 -270 166q-283 213 -314 232q-57 35 -199 105q-91 45 -91 62q0 24 342 198q314 160 393 189q12 39 21 107l2 64q-284 -127 -523 -261q-153 -86 -190 -119
q-96 -85 -96 -212q0 -41 17 -80q20 -46 185 -156q150 -100 150 -164q0 -129 -286 -129h-119v-204h147q205 0 304 149z" />
    <glyph glyph-name="u06AF" unicode="&#x6af;" horiz-adv-x="1750" arabic-form="isolated" 
d="M1700 1092l-317 -164q-313 -162 -313 -180q0 -17 49 -42q91 -46 177 -112q134 -103 134 -226q0 -89 -45 -174q-34 -65 -69 -91q-51 -38 -227 -85q-224 -60 -444 -60q-463 0 -463 312q0 152 89 254q6 7 18 2q12 -4 12 -14l-20 -46q-20 -46 -20 -86q0 -108 132 -170
q103 -48 261 -55q41 -2 172 6q172 10 271 26q75 12 146 37q110 39 110 84q0 63 -131 145q-166 104 -180 120q-45 51 -45 121q0 179 186 280l107 56l228 120q189 97 195 93q4 -3 -1 -72t-12 -79zM1068 1120q211 109 694 378q2 -13 5 -25q-8 -102 -110 -161l-203 -96
q-297 -162 -410 -219q-2 0 -2 6q0 13 10.5 63t15.5 54z" />
    <glyph glyph-name="uFB93" unicode="&#x6af;" horiz-adv-x="1948" arabic-form="final" 
d="M646 -45q-464 0 -464 303q0 148 91 252q4 5 10 5q4 0 7 -2q11 -4 11 -14q0 10 -2 10q-5 -7 -16 -48q-18 -71 -18 -93q0 -110 131 -172q110 -52 261 -52q194 0 382 33q300 53 300 164q0 77 -141 162q-157 95 -180 151q-16 39 -16 80q0 127 96 209q22 19 192 117
q201 116 522 259q4 2 4 -11q0 -51 -26 -139q-78 -31 -393 -197q-342 -180 -342 -204q0 -17 89 -61q137 -68 198 -105q25 -15 314 -232q223 -167 273 -167h49v-202h-69q-83 0 -332 248q-114 113 -171 147q9 -27 9 -60q0 -70 -45 -127q-108 -136 -333 -202q-178 -52 -391 -52z
M1086 1175l385 183q174 83 374 200q4 2 4 -12q0 -21 -7 -58q-9 -46 -18 -51l-762 -385q-2 0 -2 5q0 12 11 63.5t15 54.5z" />
    <glyph glyph-name="uFB94" unicode="&#x6af;" horiz-adv-x="800" arabic-form="initial" 
d="M-30 1v204h172q92 0 175 25q103 31 103 78q0 62 -131 145q-165 105 -179 120q-46 51 -46 121q0 181 186 281l106 55l230 121q189 96 194 92q4 -3 -1 -72.5t-11 -78.5l-317 -164q-313 -162 -313 -180t49 -42q87 -43 176 -112q133 -103 133 -226q0 -367 -382 -367h-144z
M135 1120l695 378l4 -25q-3 -78 -14 -91q-7 -9 -297 -166l-412 -219q-2 0 -2 6q0 13 10.5 63t15.5 54z" />
    <glyph glyph-name="uFB95" unicode="&#x6af;" horiz-adv-x="965" arabic-form="medial" 
d="M103 1175l385 183q177 84 374 200q4 2 4 -10q0 -20 -8 -60q-9 -46 -19 -51l-760 -385q-3 -2 -3 6q0 13 11 64t16 53zM419 150q33 49 33 127q0 60 -17 119q47 -27 168 -146q141 -139 174 -167q96 -82 149 -82h69v204h-49q-47 0 -271 165l-313 231q-31 23 -199 105
q-91 45 -91 62q0 24 342 204q312 165 394 197q15 78 23 150q-75 -32 -290 -139q-191 -95 -234 -120q-169 -98 -191 -117q-96 -82 -96 -209q0 -40 18 -80q21 -47 185 -156q150 -100 150 -164q0 -129 -286 -129h-117v-204h145q203 0 304 149z" />
    <glyph glyph-name="u0644" unicode="&#x644;" horiz-adv-x="940" arabic-form="isolated" 
d="M915 177q0 -224 -112 -354q-119 -137 -340 -137q-281 0 -281 262q0 185 95 318q7 10 17 7q11 -4 11 -19l-18 -60q-18 -60 -18 -108q0 -196 266 -196q213 0 297 122l-79 859q-63 96 -63 108q0 14 46 101.5t59 100.5q24 23 33 23q10 0 10 -23q0 -13 -4 -65q-2 -27 4 -40
q13 -28 60 -54q42 -24 42 -35q0 -87 -50 -149l-32 -15z" />
    <glyph glyph-name="uFEDE" unicode="&#x644;" horiz-adv-x="1096" arabic-form="final" 
d="M1126 1h-60q-40 0 -84.5 26.5t-63.5 61.5q3 -34 3 -66q0 -209 -102 -334q-111 -135 -316 -135q-321 0 -321 318q0 168 101 299q9 12 17 12q14 0 14 -24q0 -27 -25.5 -98t-25.5 -109q0 -194 283 -194q176 0 299 116l-103 1127q-3 29 71 178q13 27 21 27t11 -30l44 -477
q38 -350 91 -436q36 -58 106 -58h40v-204z" />
    <glyph glyph-name="uFEDF" unicode="&#x644;" horiz-adv-x="328" arabic-form="initial" 
d="M275 424q2 -27 2 -63q0 -138 -50 -236q-63 -124 -188 -124h-69v204h55q111 0 169 33q0 118 -26 332q-28 235 -32 333q-61 86 -61 107q0 15 45 101t60 101q23 23 33 23t10 -24q0 -8 -5 -64q-2 -23 5 -39q15 -35 60 -56q42 -20 42 -34q0 -73 -50 -151l-33 -12z" />
    <glyph glyph-name="uFEE0" unicode="&#x644;" horiz-adv-x="468" arabic-form="medial" 
d="M498 1h-60q-81 0 -139 66q-43 49 -58 108q-66 -174 -202 -174h-69v204h69q33 0 77 13q52 16 64 40q2 3 2 20q0 133 -30 398t-30 398q0 22 38 72q56 74 65 74q6 0 8 -29q21 -398 54 -742q12 -131 38 -182q31 -62 117 -62h56v-204z" />
    <glyph glyph-name="u0645" unicode="&#x645;" horiz-adv-x="745" arabic-form="isolated" 
d="M744 324q0 -17 -45.5 -105t-57.5 -88q14 0 15 1q-9 4 -62 11q-91 12 -134 12q-41 0 -107 -8q-88 -11 -97 -25q43 -379 43 -645q0 -49 -3 -82q-10 -112 -31 -111q-21 4 -42 212l-24 263q-17 168 -17 208q0 132 56 213q64 92 190 99q64 3 82 9q-6 17 -59 42.5t-75 25.5
q-15 0 -48.5 -12t-50.5 -12q-27 0 -11 28q102 183 203 183q47 0 156 -94q119 -103 119 -125z" />
    <glyph glyph-name="uFEE2" unicode="&#x645;" horiz-adv-x="892" arabic-form="final" 
d="M922 1h-62q-48 0 -112 20q-70 22 -99 51q-2 -91 -9 -124q-17 -79 -73 -79q-114 0 -164 234q-31 0 -78 -18.5t-64 -40.5q44 -475 44 -547q0 -114 -40 -189q-13 -24 -22 -24q-12 0 -12 35q0 104 -24.5 309.5t-24.5 309.5q0 155 86 276q96 135 244 135q13 64 19 64
q8 0 19 -22q51 -79 77 -103q91 -83 242 -83h53v-204z" />
    <glyph glyph-name="uFEE3" unicode="&#x645;" horiz-adv-x="633" arabic-form="initial" 
d="M630 278q0 -77 -35 -139q-42 -74 -113 -74q-106 0 -249 94q-25 -85 -56 -117q-39 -41 -120 -41h-87v204h51q113 0 165 50q10 10 88 129q110 169 188 169q72 0 126 -119q42 -93 42 -156zM515 304q-35 92 -93 92q-61 0 -100 -72q40 -51 162 -75q10 -2 18 -2q23 0 23 19
q0 12 -10 38z" />
    <glyph glyph-name="uFEE4" unicode="&#x645;" horiz-adv-x="744" arabic-form="medial" 
d="M774 1h-60q-129 0 -172 43q-23 -88 -83 -88q-34 0 -132 56q-91 52 -116 77q-36 -88 -160 -88h-81v204h46q111 0 160 31q23 14 80 88q14 24 51 56q50 44 86 44q48 0 97 -57l91 -105q64 -57 146 -57h47v-204zM464 187l-38 74q-36 70 -42 74q-19 0 -52 -31t-40 -51
q63 -75 152 -86q16 -2 20 4q4 5 0 16z" />
    <glyph glyph-name="u0646" unicode="&#x646;" horiz-adv-x="927" arabic-form="isolated" 
d="M924 106q0 -148 -106 -272q-129 -151 -351 -151q-147 0 -224 99q-61 78 -61 182q0 201 102 311q9 10 19 6q12 -4 12 -17q0 -9 -27 -77.5t-27 -100.5q0 -107 90 -158q73 -42 188 -42q107 0 208 47q91 42 91 71q0 127 -83 252q-27 40 -29 47q4 10 54 151q14 39 24 39
q8 0 19 -18q101 -161 101 -369zM638 681q0 -13 -59.5 -66t-72.5 -53q-6 0 -65.5 58.5t-59.5 64.5t60.5 61.5t68.5 55.5q9 0 68.5 -56.5t59.5 -64.5z" />
    <glyph glyph-name="uFEE6" unicode="&#x646;" horiz-adv-x="1121" arabic-form="final" 
d="M1151 1h-58q-36 0 -110 8q-8 -139 -23 -188q-26 -83 -107 -158q-132 -121 -318 -121q-353 0 -353 308q0 112 53 233q47 107 70 107q17 0 17 -23q0 -24 -26 -98t-26 -114q0 -112 98 -166q77 -43 199 -43q114 0 213 35q131 46 131 132q0 97 -104 258q9 19 54 126
q12 29 19 29q4 -2 10 -14q32 -65 81 -88q41 -19 122 -19h58v-204zM693 487q0 -12 -60.5 -65t-73.5 -53q-6 0 -65 58t-59 64t60 61t67 55q10 0 70.5 -55.5t60.5 -64.5z" />
    <glyph glyph-name="uFEE7" unicode="&#x646;" horiz-adv-x="369" arabic-form="initial" 
d="M372 836q0 -13 -59.5 -66t-72.5 -53q-5 0 -65.5 58.5t-60.5 63.5t60.5 61.5t66.5 56.5q9 0 70 -56.5t61 -64.5zM330 345q0 -130 -45 -223q-59 -121 -175 -121h-140v204h144q115 0 154 21q-25 95 -57 139l47 130q9 24 16 24t19 -20q37 -63 37 -154z" />
    <glyph glyph-name="uFEE8" unicode="&#x646;" horiz-adv-x="470" arabic-form="medial" 
d="M363 711q0 -12 -60 -64.5t-73 -52.5q-5 0 -64 58.5t-59 64.5t59.5 61.5t66.5 55.5q10 0 70 -57t60 -66zM499 1h-75q-143 0 -203 126q-55 -126 -191 -126h-60v204h51q155 0 183 41q11 17 31 78q13 41 36 41q21 0 17 -34q-2 -17 -2 -24q0 -102 158 -102h55v-204z" />
    <glyph glyph-name="u0648" unicode="&#x648;" horiz-adv-x="827" arabic-form="isolated" 
d="M824 201q0 -179 -108 -346q-116 -179 -264 -179q-143 0 -278 43q-78 25 -78 46q0 18 50 19q36 0 128 2q216 8 398 187q95 93 95 129q0 26 -31 69q-53 -80 -127 -80q-105 0 -105 142q0 60 41 152q53 118 125 118q65 0 112 -107q42 -96 42 -195zM702 258q0 26 -23.5 54.5
t-48.5 28.5q-12 0 -31.5 -26.5t-19.5 -39.5q0 -45 64 -45q59 0 59 28z" />
    <glyph glyph-name="uFEEE" unicode="&#x648;" horiz-adv-x="879" arabic-form="final" 
d="M909 1h-77q-171 -388 -389 -388q-154 0 -307 90q-37 22 -37 39q0 20 47 16l118 -9q20 -1 39 -1q186 0 347 134q84 70 110 114q-12 0 -36 -1.5t-36 -1.5q-186 0 -186 125q0 49 53 160q60 126 114 126q57 0 109 -90l50 -109h81v-204zM740 163q0 19 -44.5 53.5t-65.5 34.5
q-25 0 -44 -35q-15 -28 -15 -47q0 -27 98 -27q71 0 71 21z" />
    <glyph glyph-name="u0647" unicode="&#x647;" horiz-adv-x="548" arabic-form="isolated" 
d="M546 300q0 -121 -49 -210q-60 -110 -171 -110q-144 0 -144 179q0 142 85 241q-11 12 -11 42q0 55 37 160q5 14 19 15q13 0 13 -11q0 -32 32 -54l72 -49q74 -53 94 -84q23 -37 23 -119zM488 242q0 37 -82 89q-73 46 -97 46q-16 0 -37 -55q-19 -49 -19 -71q0 -67 77 -67
q42 0 90 12q68 17 68 46z" />
    <glyph glyph-name="uFEEA" unicode="&#x647;" horiz-adv-x="827" arabic-form="final" 
d="M857 1h-72q-97 0 -163 95q-17 25 -56 116h-14q-43 -72 -78 -94q-43 -27 -138 -27q-154 0 -154 52q0 65 30 138q37 90 104 135q91 61 195 101l-16 85q33 143 41 143q7 0 16 -49q35 -195 83 -406q30 -85 170 -85h52v-204zM546 316l-26 104q-6 0 -104 -49q-104 -52 -120 -67
q28 -26 96 -26q162 0 154 38z" />
    <glyph glyph-name="uFEEB" unicode="&#x647;" horiz-adv-x="645" arabic-form="initial" 
d="M643 365q0 -137 -19 -190q-29 -81 -117 -81q-48 0 -129 16l-97 20q-129 -129 -237 -129h-74v204h67q73 0 91 25q-45 30 -45 89q0 98 112 243q-32 35 -36 36q16 55 50 158q11 33 26 33q26 0 250 -191q158 -135 158 -233zM599 292q0 17 -180 167q-13 11 -19 6q-7 -5 -1 -18
q9 -20 9 -59q0 -67 -28 -95q117 -39 193 -39q22 0 26 8v30zM349 371q0 51 -40 94q-32 35 -51 35q-26 0 -65.5 -53t-39.5 -80q0 -43 112 -56q28 -3 56 15t28 45z" />
    <glyph glyph-name="uFEEC" unicode="&#x647;" horiz-adv-x="732" arabic-form="medial" 
d="M762 1h-96q-77 0 -188 26q47 -56 47 -130q0 -95 -32 -168q-41 -94 -120 -94q-51 0 -107 53q-50 46 -72 100q-40 96 -37 234q-44 -21 -127 -21h-60v204h45q120 0 178 27q25 118 96 266q93 194 171 196q43 1 64 -77q14 -52 14 -110q0 -89 -40 -178q-42 -95 -110 -145
q52 0 156.5 10.5t156.5 10.5h61v-204zM456 380q0 22 -17 57q-20 41 -37 41q-27 0 -87 -101q-54 -91 -64 -132q43 4 112 41q93 50 93 94zM468 -147q0 49 -98 97q-88 43 -144 43q15 -70 66 -119q55 -54 123 -54q53 0 53 33z" />
    <glyph glyph-name="u0629" unicode="&#x629;" horiz-adv-x="548" arabic-form="isolated" 
d="M529 909q0 -10 -50 -58.5t-60 -48.5q-14 0 -109 93q-92 -91 -108 -91q-10 0 -61.5 48t-51.5 57q0 8 50.5 52.5t59.5 44.5q13 0 113 -89q95 89 104 89q12 0 62.5 -43.5t50.5 -53.5zM546 300q0 -121 -49 -210q-60 -110 -171 -110q-144 0 -144 179q0 142 85 241
q-11 12 -11 42q0 55 37 160q5 14 19 15q13 0 13 -11q0 -32 32 -54l72 -49q74 -53 94 -84q23 -37 23 -119zM488 242q0 37 -82 89q-73 46 -97 46q-16 0 -37 -55q-19 -49 -19 -71q0 -67 77 -67q42 0 90 12q68 17 68 46z" />
    <glyph glyph-name="uFE94" unicode="&#x6c0;" horiz-adv-x="827" arabic-form="final" 
d="M684 990q0 -9 -50.5 -57.5t-59.5 -48.5q-15 0 -107 90q-95 -89 -110 -89q-10 0 -62 48t-52 57t50.5 53.5t60.5 44.5q13 0 113 -89q94 89 104 89q11 0 62 -44t51 -54zM857 1h-72q-97 0 -163 95q-17 25 -56 116h-14q-43 -72 -78 -94q-43 -27 -138 -27q-154 0 -154 52
q0 65 30 138q37 90 104 135q91 61 195 101l-16 85q33 143 41 143q7 0 16 -49q35 -195 83 -406q30 -85 170 -85h52v-204zM546 316l-26 104q-6 0 -104 -49q-104 -52 -120 -67q28 -26 96 -26q162 0 154 38z" />
    <glyph glyph-name="u064A" unicode="&#x64a;" horiz-adv-x="1234" arabic-form="isolated" 
d="M1234 578q0 -159 -73 -159q-1 0 -21.5 19.5t-35.5 19.5q-63 0 -173 -77q-114 -80 -114 -139q0 -35 67 -55l103 -20q99 -19 123 -29q71 -29 71 -90q0 -121 -32 -163q-82 -108 -247 -190q-179 -89 -344 -89q-376 0 -376 329q0 188 107 353q11 17 28 17q22 0 9 -37
q-56 -156 -56 -224q0 -122 102 -184q85 -51 216 -51q276 0 474 135q45 31 45 41t-60 14q-153 11 -178 17q-127 32 -127 136q0 93 69 210q52 88 116 149q134 128 220 128q31 0 57 -15q30 -17 30 -46z" />
    <glyph glyph-name="uFEF2" unicode="&#x6cc;" horiz-adv-x="1234" arabic-form="final" 
d="M1264 1h-112q-153 0 -210 -24q-24 -10 -24 -22q0 -10 17 -13q63 -9 126 -19q90 -15 112 -35q27 -25 27 -101q0 -89 -163 -209q-190 -140 -417 -140q-186 0 -300 69q-138 85 -138 260q0 226 136 379q17 19 28 19q14 0 14 -29q0 21 -4 21q-10 0 -43 -103q-46 -149 -46 -194
q0 -219 395 -219q299 0 431 113q12 10 12 16q0 13 -61 21q-132 17 -167 29q-74 25 -74 84q0 111 108 201q119 100 293 100h60v-204z" />
    <glyph glyph-name="uFEF3" unicode="&#x6cc;" horiz-adv-x="458" arabic-form="initial" 
d="M471 -253q0 -9 -50.5 -58t-59.5 -49q-13 0 -108 91q-92 -89 -109 -89q-10 0 -61 48t-51 57q0 8 50.5 53t59.5 45q12 0 114 -90q93 90 102 90q12 0 62.5 -44t50.5 -54zM330 345q0 -130 -45 -223q-59 -121 -175 -121h-140v204h144q115 0 154 21q-25 95 -57 139l47 130
q9 24 16 24t19 -20q37 -63 37 -154z" />
    <glyph glyph-name="uFEF4" unicode="&#x6cc;" horiz-adv-x="470" arabic-form="medial" 
d="M443 -239q0 -9 -50 -58.5t-59 -49.5q-15 0 -108 91q-94 -88 -110 -88q-9 0 -60.5 48t-51.5 57q0 8 50.5 52t59.5 44q14 0 113 -87q95 87 104 87q12 0 62 -43t50 -53zM499 1h-75q-143 0 -203 126q-55 -126 -191 -126h-60v204h51q155 0 183 41q11 17 31 78q13 41 36 41
q21 0 17 -34q-2 -17 -2 -24q0 -102 158 -102h55v-204z" />
    <glyph glyph-name="u0649" unicode="&#x649;" horiz-adv-x="1234" arabic-form="isolated" 
d="M1234 578q0 -159 -73 -159q-1 0 -21.5 19.5t-35.5 19.5q-63 0 -173 -77q-114 -80 -114 -139q0 -35 67 -55l103 -20q99 -19 123 -29q71 -29 71 -90q0 -121 -32 -163q-82 -108 -247 -190q-179 -89 -344 -89q-376 0 -376 329q0 188 107 353q11 17 28 17q22 0 9 -37
q-56 -156 -56 -224q0 -122 102 -184q85 -51 216 -51q276 0 474 135q45 31 45 41t-60 14q-153 11 -178 17q-127 32 -127 136q0 93 69 210q52 88 116 149q134 128 220 128q31 0 57 -15q30 -17 30 -46z" />
    <glyph glyph-name="uFEF0" unicode="&#x649;" horiz-adv-x="1234" arabic-form="final" 
d="M1264 1h-112q-153 0 -210 -24q-24 -10 -24 -22q0 -10 17 -13q63 -9 126 -19q90 -15 112 -35q27 -25 27 -101q0 -89 -163 -209q-190 -140 -417 -140q-186 0 -300 69q-138 85 -138 260q0 226 136 379q17 19 28 19q14 0 14 -29q0 21 -4 21q-10 0 -43 -103q-46 -149 -46 -194
q0 -219 395 -219q299 0 431 113q12 10 12 16q0 13 -61 21q-132 17 -167 29q-74 25 -74 84q0 111 108 201q119 100 293 100h60v-204z" />
    <glyph glyph-name=".notdef" horiz-adv-x="1005" 
d="M126 0v1181h753v-1181h-753zM251 126h503v929h-503v-929z" />
    <glyph glyph-name=".null" 
 />
    <glyph glyph-name="nonmarkingreturn" horiz-adv-x="466" 
 />
    <glyph glyph-name="space" unicode=" " horiz-adv-x="466" 
 />
    <glyph glyph-name="exclam" unicode="!" horiz-adv-x="486" 
d="M399 1211q-30 -189 -30 -501q0 -213 20 -354l-91 -56q-40 115 -69 388q-23 218 -23 342q0 47 67 105q85 73 93 88q6 11 16 11q21 0 17 -23zM487 82q0 -21 -68.5 -91t-89.5 -70q-25 0 -86 66t-61 92q0 19 64 81t84 62t88.5 -60.5t68.5 -79.5z" />
    <glyph glyph-name="percent" unicode="%" horiz-adv-x="962" 
d="M864 1398l-685 -1549l-83 32l687 1552zM393 1190q-22 -27 -152 -174l-177 153l142 173zM890 110q-22 -28 -153 -175l-178 154l143 172z" />
    <glyph glyph-name="parenleft" unicode="(" horiz-adv-x="504" 
d="M508 -100q0 -34 -77 -109q-54 40 -126 172q-107 197 -120 417q-3 51 -3 95q0 162 63 338q34 95 115 215q47 70 64 70q6 0 27 -16.5t21 -21.5q0 7 -56 -76q-61 -91 -86 -182q-37 -135 -37 -259q0 -210 37 -321q45 -134 117 -239q61 -89 61 -83z" />
    <glyph glyph-name="parenright" unicode=")" horiz-adv-x="504" 
d="M179 987q0 35 77 110q56 -45 126 -173q106 -194 120 -417q3 -48 3 -91q0 -159 -64 -340q-39 -110 -115 -214q-53 -72 -63 -72q-6 0 -27 17t-21 22q0 -6 55 76q61 91 86 181q40 145 40 259q0 325 -158 560q-59 88 -59 82z" />
    <glyph glyph-name="asterisk" unicode="*" horiz-adv-x="1128" 
d="M997 602q-64 -69 -230 -114q-22 -6 -22 9q0 5 3 10q45 150 117 222q28 28 64 28t65 -29.5t29 -65.5q0 -32 -26 -60zM740 9q0 -85 -91 -85q-90 0 -90 92q0 83 72 238q14 30 31 0q78 -139 78 -245zM1130 396q0 -90 -86 -92q-100 -2 -245 80q-12 7 -12 16q1 9 12 13
q157 74 239 74q92 0 92 -91zM748 781q0 -100 -79 -245q-17 -31 -30 0q-72 166 -72 240q0 91 91 91q90 0 90 -86zM556 511q2 -4 2 -10q0 -5 -2 -8q-6 -6 -18 -2q-163 60 -222 119q-28 28 -28 65q0 35 29 64t64 29q33 0 60 -27q86 -85 115 -230zM747 404q0 -37 -28 -65
t-65 -28q-39 0 -63 27t-24 67q0 38 26 63.5t64 25.5q37 0 63.5 -26.5t26.5 -63.5zM925 21q-34 0 -60 27q-69 71 -115 229q-4 13 1.5 19t18.5 1q164 -63 220 -117q29 -28 29 -64q0 -35 -29 -65t-65 -30zM514 388q-159 -72 -243 -72q-89 0 -89 89q0 91 85 91q105 0 245 -81
q11 -5 12 -13q1 -9 -10 -14zM560 286q-61 -163 -119 -221q-28 -28 -64 -28q-35 0 -64 28.5t-29 63.5q0 32 26 58q75 76 232 117q4 3 8 3q18 0 10 -21z" />
    <glyph glyph-name="plus" unicode="+" horiz-adv-x="950" 
d="M523 449h355v-98h-355v-356h-100v356h-355v100h355v354h100v-356z" />
    <glyph glyph-name="comma" unicode="," horiz-adv-x="417" 
d="M175 88q0 22 45 72t66 50q26 0 70 -43q60 -58 60 -147q0 -53 -63 -142q-66 -93 -115 -93q-19 0 -23 10q-3 10 10 22q76 72 76 119q0 61 -53 76q-19 5 -46 32t-27 44z" />
    <glyph glyph-name="hyphen" unicode="-" horiz-adv-x="950" 
d="M878 449v-98h-810v100z" />
    <glyph glyph-name="period" unicode="." horiz-adv-x="391" 
d="M392 78q0 -19 -44 -63.5t-62 -44.5t-61 43.5t-43 61.5t45.5 63.5t62.5 45.5q16 0 59 -44.5t43 -61.5z" />
    <glyph glyph-name="slash" unicode="/" horiz-adv-x="911" 
d="M759 1458q0 -5 80 -34l-689 -1559l-82 32z" />
    <glyph glyph-name="zero" unicode="0" horiz-adv-x="940" 
d="M646 426l-196 -196l-193 194l196 195z" />
    <glyph glyph-name="zero" unicode="&#x6f0;" horiz-adv-x="940" 
d="M646 426l-196 -196l-193 194l196 195z" />
    <glyph glyph-name="zero" unicode="&#x660;" horiz-adv-x="940" 
d="M646 426l-196 -196l-193 194l196 195z" />
    <glyph glyph-name="one" unicode="1" horiz-adv-x="940" 
d="M653 8q-17 -78 -38 -78q-20 0 -25 77q-11 166 -93 373q-38 96 -106 230q-42 83 -96 159q-36 51 -35 63q9 50 44 204q13 56 26 56q11 0 39 -40q123 -176 207 -407q90 -249 90 -446q0 -132 -13 -191z" />
    <glyph glyph-name="one" unicode="&#x6f1;" horiz-adv-x="940" 
d="M653 8q-17 -78 -38 -78q-20 0 -25 77q-11 166 -93 373q-38 96 -106 230q-42 83 -96 159q-36 51 -35 63q9 50 44 204q13 56 26 56q11 0 39 -40q123 -176 207 -407q90 -249 90 -446q0 -132 -13 -191z" />
    <glyph glyph-name="one" unicode="&#x661;" horiz-adv-x="940" 
d="M653 8q-17 -78 -38 -78q-20 0 -25 77q-11 166 -93 373q-38 96 -106 230q-42 83 -96 159q-36 51 -35 63q9 50 44 204q13 56 26 56q11 0 39 -40q123 -176 207 -407q90 -249 90 -446q0 -132 -13 -191z" />
    <glyph glyph-name="two" unicode="2" horiz-adv-x="940" 
d="M494 -73q-20 0 -23 46q-13 187 -94 415q-63 177 -90 231q-36 72 -83 143q-36 54 -36 65q0 41 42 205q17 67 30 67q12 0 89 -138q57 -73 166 -73q148 0 202 181q10 35 25 35q18 0 24 -36q11 -69 11 -103q0 -164 -60 -229q-90 -97 -217 -97q73 -238 73 -413q0 -66 -12 -162
q-17 -137 -47 -137z" />
    <glyph glyph-name="two" unicode="&#x6f2;" horiz-adv-x="940" 
d="M494 -73q-20 0 -23 46q-13 187 -94 415q-63 177 -90 231q-36 72 -83 143q-36 54 -36 65q0 41 42 205q17 67 30 67q12 0 89 -138q57 -73 166 -73q148 0 202 181q10 35 25 35q18 0 24 -36q11 -69 11 -103q0 -164 -60 -229q-90 -97 -217 -97q73 -238 73 -413q0 -66 -12 -162
q-17 -137 -47 -137z" />
    <glyph glyph-name="two" unicode="&#x662;" horiz-adv-x="940" 
d="M494 -73q-20 0 -23 46q-13 187 -94 415q-63 177 -90 231q-36 72 -83 143q-36 54 -36 65q0 41 42 205q17 67 30 67q12 0 89 -138q57 -73 166 -73q148 0 202 181q10 35 25 35q18 0 24 -36q11 -69 11 -103q0 -164 -60 -229q-90 -97 -217 -97q73 -238 73 -413q0 -66 -12 -162
q-17 -137 -47 -137z" />
    <glyph glyph-name="three" unicode="3" horiz-adv-x="940" 
d="M877 931q0 -96 -49 -182q-58 -101 -147 -101q-86 0 -145 44q-50 -95 -143 -91q0 24 3 25q5 -6 12 -44q44 -226 44 -359q0 -68 -13 -164q-18 -136 -52 -136q-22 0 -29 68q-11 107 -28 196q-13 71 -49 181q-58 180 -130 322q-55 109 -59 112q0 19 21 121.5t28 121.5
q12 54 21 54q10 0 32 -34l66 -130q51 -79 140 -79q99 0 122 85q5 56 11 111q6 15 22 15q18 0 24 -18l18 -92q23 -62 100 -62q69 0 96 58q6 12 21 96q8 43 26 43q37 0 37 -161z" />
    <glyph glyph-name="three" unicode="&#x6f3;" horiz-adv-x="940" 
d="M877 931q0 -96 -49 -182q-58 -101 -147 -101q-86 0 -145 44q-50 -95 -143 -91q0 24 3 25q5 -6 12 -44q44 -226 44 -359q0 -68 -13 -164q-18 -136 -52 -136q-22 0 -29 68q-11 107 -28 196q-13 71 -49 181q-58 180 -130 322q-55 109 -59 112q0 19 21 121.5t28 121.5
q12 54 21 54q10 0 32 -34l66 -130q51 -79 140 -79q99 0 122 85q5 56 11 111q6 15 22 15q18 0 24 -18l18 -92q23 -62 100 -62q69 0 96 58q6 12 21 96q8 43 26 43q37 0 37 -161z" />
    <glyph glyph-name="three" unicode="&#x663;" horiz-adv-x="940" 
d="M877 931q0 -96 -49 -182q-58 -101 -147 -101q-86 0 -145 44q-50 -95 -143 -91q0 24 3 25q5 -6 12 -44q44 -226 44 -359q0 -68 -13 -164q-18 -136 -52 -136q-22 0 -29 68q-11 107 -28 196q-13 71 -49 181q-58 180 -130 322q-55 109 -59 112q0 19 21 121.5t28 121.5
q12 54 21 54q10 0 32 -34l66 -130q51 -79 140 -79q99 0 122 85q5 56 11 111q6 15 22 15q18 0 24 -18l18 -92q23 -62 100 -62q69 0 96 58q6 12 21 96q8 43 26 43q37 0 37 -161z" />
    <glyph glyph-name="four" unicode="4" horiz-adv-x="940" 
d="M823 858q-14 -105 -116 -172q-92 -62 -203 -62q-31 0 -60 5q32 -59 61 -173q37 -146 37 -285q0 -112 -25 -204q-12 -44 -32 -44q-22 0 -30 70q-22 184 -92 383q-36 102 -104 231q-49 92 -96 160q-31 44 -31 54q0 19 45 176q24 84 39 84q11 0 64 -70q49 -65 58 -82
q90 180 232 180q77 0 131 -49q12 -11 12 -23q0 -47 -87 -37q-60 7 -53 7q-49 0 -92.5 -37t-43.5 -85q0 -98 119 -98q71 0 140 33l120 88q9 0 9 -23q0 -12 -2 -27z" />
    <glyph glyph-name="four" unicode="&#x6f4;" horiz-adv-x="940" 
d="M823 858q-14 -105 -116 -172q-92 -62 -203 -62q-31 0 -60 5q32 -59 61 -173q37 -146 37 -285q0 -112 -25 -204q-12 -44 -32 -44q-22 0 -30 70q-22 184 -92 383q-36 102 -104 231q-49 92 -96 160q-31 44 -31 54q0 19 45 176q24 84 39 84q11 0 64 -70q49 -65 58 -82
q90 180 232 180q77 0 131 -49q12 -11 12 -23q0 -47 -87 -37q-60 7 -53 7q-49 0 -92.5 -37t-43.5 -85q0 -98 119 -98q71 0 140 33l120 88q9 0 9 -23q0 -12 -2 -27z" />
    <glyph glyph-name="four" unicode="&#x664;" horiz-adv-x="940" 
d="M823 858q-14 -105 -116 -172q-92 -62 -203 -62q-31 0 -60 5q32 -59 61 -173q37 -146 37 -285q0 -112 -25 -204q-12 -44 -32 -44q-22 0 -30 70q-22 184 -92 383q-36 102 -104 231q-49 92 -96 160q-31 44 -31 54q0 19 45 176q24 84 39 84q11 0 64 -70q49 -65 58 -82
q90 180 232 180q77 0 131 -49q12 -11 12 -23q0 -47 -87 -37q-60 7 -53 7q-49 0 -92.5 -37t-43.5 -85q0 -98 119 -98q71 0 140 33l120 88q9 0 9 -23q0 -12 -2 -27z" />
    <glyph glyph-name="five" unicode="5" horiz-adv-x="940" 
d="M855 340q0 -140 -54 -257q-68 -148 -194 -148q-58 0 -91 25l-38 40q-78 -98 -172 -98q-71 0 -135 70q-79 87 -79 233q0 336 288 667q-2 4 -24 21.5t-22 23.5q0 20 41.5 104t51.5 84q25 0 124 -101q118 -120 196 -264q108 -198 108 -400zM726 336q0 110 -93 261
q-89 145 -187 207q-107 -155 -134 -206q-81 -153 -81 -294q0 -177 117 -177q71 0 100 78q14 37 28 37q10 0 22 -20q41 -72 112 -72q116 0 116 186z" />
    <glyph glyph-name="five" unicode="&#x6f5;" horiz-adv-x="940" 
d="M855 340q0 -140 -54 -257q-68 -148 -194 -148q-58 0 -91 25l-38 40q-78 -98 -172 -98q-71 0 -135 70q-79 87 -79 233q0 336 288 667q-2 4 -24 21.5t-22 23.5q0 20 41.5 104t51.5 84q25 0 124 -101q118 -120 196 -264q108 -198 108 -400zM726 336q0 110 -93 261
q-89 145 -187 207q-107 -155 -134 -206q-81 -153 -81 -294q0 -177 117 -177q71 0 100 78q14 37 28 37q10 0 22 -20q41 -72 112 -72q116 0 116 186z" />
    <glyph glyph-name="five" unicode="&#x665;" horiz-adv-x="940" 
d="M855 340q0 -140 -54 -257q-68 -148 -194 -148q-58 0 -91 25l-38 40q-78 -98 -172 -98q-71 0 -135 70q-79 87 -79 233q0 336 288 667q-2 4 -24 21.5t-22 23.5q0 20 41.5 104t51.5 84q25 0 124 -101q118 -120 196 -264q108 -198 108 -400zM726 336q0 110 -93 261
q-89 145 -187 207q-107 -155 -134 -206q-81 -153 -81 -294q0 -177 117 -177q71 0 100 78q14 37 28 37q10 0 22 -20q41 -72 112 -72q116 0 116 186z" />
    <glyph glyph-name="six" unicode="6" horiz-adv-x="940" 
d="M824 727q0 -27 -30.5 -112t-46.5 -99q-20 -8 -72 -32q-73 -35 -174 -132q-53 -51 -174 -185q-77 -95 -142 -207q-22 -38 -39 -38q-19 0 -15 48q11 123 92 283q78 156 170 246q-80 17 -154 56q-108 57 -108 126q0 99 129 259q139 172 255 172q59 0 113 -36q60 -41 60 -97
q0 -42 -31 -42q-13 0 -66 19t-83 19q-72 0 -137.5 -66.5t-65.5 -139.5q0 -139 194 -139q95 0 162 35q41 21 85 64q36 35 53 35q25 0 25 -37z" />
    <glyph glyph-name="six" unicode="&#x6f6;" horiz-adv-x="940" 
d="M824 727q0 -27 -30.5 -112t-46.5 -99q-20 -8 -72 -32q-73 -35 -174 -132q-53 -51 -174 -185q-77 -95 -142 -207q-22 -38 -39 -38q-19 0 -15 48q11 123 92 283q78 156 170 246q-80 17 -154 56q-108 57 -108 126q0 99 129 259q139 172 255 172q59 0 113 -36q60 -41 60 -97
q0 -42 -31 -42q-13 0 -66 19t-83 19q-72 0 -137.5 -66.5t-65.5 -139.5q0 -139 194 -139q95 0 162 35q41 21 85 64q36 35 53 35q25 0 25 -37z" />
    <glyph glyph-name="six" unicode="&#x666;" horiz-adv-x="940" 
d="M824 727q0 -27 -30.5 -112t-46.5 -99q-20 -8 -72 -32q-73 -35 -174 -132q-53 -51 -174 -185q-77 -95 -142 -207q-22 -38 -39 -38q-19 0 -15 48q11 123 92 283q78 156 170 246q-80 17 -154 56q-108 57 -108 126q0 99 129 259q139 172 255 172q59 0 113 -36q60 -41 60 -97
q0 -42 -31 -42q-13 0 -66 19t-83 19q-72 0 -137.5 -66.5t-65.5 -139.5q0 -139 194 -139q95 0 162 35q41 21 85 64q36 35 53 35q25 0 25 -37z" />
    <glyph glyph-name="seven" unicode="7" horiz-adv-x="940" 
d="M862 817q0 -9 -58 -106q-75 -126 -102 -176q-126 -233 -191 -562q-10 -49 -31 -49q-20 0 -30 49q-66 332 -205 556q-44 72 -117 163q-56 70 -56 79q0 -16 10 162q4 66 10 132q2 21 12 21q8 0 23 -17q215 -239 344 -713q42 163 123 356q89 212 173 333q36 52 51 52
q7 0 14 -39q30 -174 30 -241z" />
    <glyph glyph-name="seven" unicode="&#x6f7;" horiz-adv-x="940" 
d="M862 817q0 -9 -58 -106q-75 -126 -102 -176q-126 -233 -191 -562q-10 -49 -31 -49q-20 0 -30 49q-66 332 -205 556q-44 72 -117 163q-56 70 -56 79q0 -16 10 162q4 66 10 132q2 21 12 21q8 0 23 -17q215 -239 344 -713q42 163 123 356q89 212 173 333q36 52 51 52
q7 0 14 -39q30 -174 30 -241z" />
    <glyph glyph-name="seven" unicode="&#x667;" horiz-adv-x="940" 
d="M862 817q0 -9 -58 -106q-75 -126 -102 -176q-126 -233 -191 -562q-10 -49 -31 -49q-20 0 -30 49q-66 332 -205 556q-44 72 -117 163q-56 70 -56 79q0 -16 10 162q4 66 10 132q2 21 12 21q8 0 23 -17q215 -239 344 -713q42 163 123 356q89 212 173 333q36 52 51 52
q7 0 14 -39q30 -174 30 -241z" />
    <glyph glyph-name="eight" unicode="8" horiz-adv-x="940" 
d="M72 193q0 9 58 106q69 115 101 176q128 242 190 561q10 50 31 50q20 0 30 -50q67 -330 207 -556q44 -71 116 -162q57 -72 57 -80q-3 -34 -11 -160q-2 -34 -9 -134q-2 -20 -13 -20q-9 0 -24 16q-209 229 -344 714q-38 -160 -121 -357q-88 -208 -174 -333q-35 -51 -50 -51
q-11 0 -16 39q-28 208 -28 241z" />
    <glyph glyph-name="eight" unicode="&#x6f8;" horiz-adv-x="940" 
d="M72 193q0 9 58 106q69 115 101 176q128 242 190 561q10 50 31 50q20 0 30 -50q67 -330 207 -556q44 -71 116 -162q57 -72 57 -80q-3 -34 -11 -160q-2 -34 -9 -134q-2 -20 -13 -20q-9 0 -24 16q-209 229 -344 714q-38 -160 -121 -357q-88 -208 -174 -333q-35 -51 -50 -51
q-11 0 -16 39q-28 208 -28 241z" />
    <glyph glyph-name="eight" unicode="&#x668;" horiz-adv-x="940" 
d="M72 193q0 9 58 106q69 115 101 176q128 242 190 561q10 50 31 50q20 0 30 -50q67 -330 207 -556q44 -71 116 -162q57 -72 57 -80q-3 -34 -11 -160q-2 -34 -9 -134q-2 -20 -13 -20q-9 0 -24 16q-209 229 -344 714q-38 -160 -121 -357q-88 -208 -174 -333q-35 -51 -50 -51
q-11 0 -16 39q-28 208 -28 241z" />
    <glyph glyph-name="nine" unicode="9" horiz-adv-x="940" 
d="M783 159q0 -44 -68 -226q-5 -14 -14 -14q-19 0 -60 78q-47 91 -77 204q-8 32 -42 261q-66 -23 -136 -23q-93 0 -155 48q-69 53 -69 143q0 122 68 270q86 188 216 188q86 0 122 -131q18 -66 49 -319q35 -287 133 -432q30 -44 33 -47zM482 717q0 49 -20 86q-24 45 -69 45
t-84 -45q-32 -37 -32 -55q0 -41 61 -65q48 -19 96 -19t48 53z" />
    <glyph glyph-name="nine" unicode="&#x6f9;" horiz-adv-x="940" 
d="M783 159q0 -44 -68 -226q-5 -14 -14 -14q-19 0 -60 78q-47 91 -77 204q-8 32 -42 261q-66 -23 -136 -23q-93 0 -155 48q-69 53 -69 143q0 122 68 270q86 188 216 188q86 0 122 -131q18 -66 49 -319q35 -287 133 -432q30 -44 33 -47zM482 717q0 49 -20 86q-24 45 -69 45
t-84 -45q-32 -37 -32 -55q0 -41 61 -65q48 -19 96 -19t48 53z" />
    <glyph glyph-name="nine" unicode="&#x669;" horiz-adv-x="940" 
d="M783 159q0 -44 -68 -226q-5 -14 -14 -14q-19 0 -60 78q-47 91 -77 204q-8 32 -42 261q-66 -23 -136 -23q-93 0 -155 48q-69 53 -69 143q0 122 68 270q86 188 216 188q86 0 122 -131q18 -66 49 -319q35 -287 133 -432q30 -44 33 -47zM482 717q0 49 -20 86q-24 45 -69 45
t-84 -45q-32 -37 -32 -55q0 -41 61 -65q48 -19 96 -19t48 53z" />
    <glyph glyph-name="colon" unicode=":" horiz-adv-x="391" 
d="M392 512q0 -18 -44 -63t-62 -45t-61 44t-43 62t45.5 63.5t62.5 45.5t59.5 -45t42.5 -62zM392 65q0 -18 -44 -63.5t-62 -45.5t-61 44t-43 62q0 17 45.5 63t62.5 46q16 0 59 -44.5t43 -61.5z" />
    <glyph glyph-name="equal" unicode="=" horiz-adv-x="950" 
d="M69 491v99h810v-99h-810zM69 209v97h810v-97h-810z" />
    <glyph glyph-name="bracketleft" unicode="[" horiz-adv-x="600" 
d="M585 -523h-426v1931h425v-140h-278v-1651h279v-140z" />
    <glyph glyph-name="bracketright" unicode="]" horiz-adv-x="600" 
d="M607 -523h-426v140h279v1651h-278v140h425v-1931z" />
    <glyph glyph-name="braceleft" unicode="{" horiz-adv-x="963" 
d="M754 -342q-151 14 -258 119q-112 110 -112 259q0 53 23 156.5t23 156.5q0 81 -74 138q-61 48 -149 64v34q132 24 194 113q29 42 29 88q0 53 -23 156.5t-23 156.5q0 150 111 259q107 105 259 119v-36q-139 -14 -199 -128q-28 -53 -28 -105q0 -53 18.5 -158t18.5 -158
q0 -137 -129 -243q-63 -52 -149 -82q172 -55 245 -195q33 -63 33 -129q0 -53 -18.5 -158t-18.5 -158q0 -95 67 -160q64 -63 160 -72v-37z" />
    <glyph glyph-name="braceright" unicode="}" horiz-adv-x="963" 
d="M756 551q-88 -16 -149 -64q-74 -57 -74 -138q0 -51 23 -153.5t23 -159.5q0 -192 -180 -312q-84 -56 -190 -66v37q138 14 199 127q28 52 28 105t-19 158t-19 158q0 114 87 206q75 81 192 122q-170 51 -245 195q-34 65 -34 126q0 53 19 158t19 158q0 120 -105 192
q-49 34 -122 41v36q114 -10 206.5 -76.5t136.5 -170.5q27 -64 27 -131q0 -53 -23 -156.5t-23 -156.5q0 -80 74 -137q60 -47 149 -64v-34z" />
    <glyph glyph-name="guillemotleft" unicode="&#xab;" horiz-adv-x="819" 
d="M764 10h-52l-334 392l334 386h46l-242 -386zM462 10h-48l-332 392l334 386h46l-241 -386z" />
    <glyph glyph-name="guillemotright" unicode="&#xbb;" horiz-adv-x="819" 
d="M748 392l-332 -382h-48l241 382l-249 396h44zM450 392l-329 -382h-48l238 382l-246 396h44z" />
    <glyph glyph-name="multiply" unicode="&#xd7;" horiz-adv-x="928" 
d="M787 215l-57 -56l-272 270l-272 -270l-57 56l269 273l-269 273l60 55l269 -271l272 271l57 -55l-274 -273z" />
    <glyph glyph-name="divide" unicode="&#xf7;" horiz-adv-x="1009" 
d="M880 383h-800v97h800v-97zM486 803q40 0 69 -28.5t29 -68.5t-28.5 -68t-68.5 -28t-68.5 28t-28.5 68t28 68.5t68 28.5zM486 240q40 0 69 -28.5t29 -68.5t-28.5 -68t-68.5 -28t-68.5 28t-28.5 68t28 68.5t68 28.5z" />
    <glyph glyph-name="zeronojoin" unicode="&#x200c;" horiz-adv-x="31" 
 />
    <glyph glyph-name="zerojoin" unicode="&#x200d;" horiz-adv-x="31" 
 />
    <glyph glyph-name="lefttoright" unicode="&#x200e;" horiz-adv-x="31" 
d="M207 1100l-92 -94l-23 20l60 60h-121v-1086h-31v1115h148l-56 57l23 21z" />
    <glyph glyph-name="righttoleft" unicode="&#x200f;" horiz-adv-x="31" 
d="M31 0h-31v1086h-121l59 -60l-20 -20l-95 94l95 93l20 -21l-57 -57h150v-1115z" />
    <glyph glyph-name="quoteleft" unicode="&#x2018;" horiz-adv-x="522" 
d="M386 1089q0 -42 -32.5 -70t-75.5 -28q-65 0 -105 52q-37 48 -37 115q0 128 108 225q51 46 116 71l14 -37q-155 -91 -155 -201q0 -42 28 -42q8 0 24 3t24 3q91 0 91 -91z" />
    <glyph glyph-name="quoteright" unicode="&#x2019;" horiz-adv-x="522" 
d="M386 1287q0 -98 -66 -181q-61 -77 -157 -115l-14 37q154 89 154 200q0 42 -27 42q-8 0 -24.5 -3t-24.5 -3q-38 0 -64.5 26t-26.5 64q0 43 32.5 71.5t76.5 28.5q64 0 104 -53q37 -48 37 -114z" />
    <glyph glyph-name="quotedblleft" unicode="&#x201c;" horiz-adv-x="963" 
d="M826 1089q0 -44 -32 -71t-77 -27q-66 0 -105 52q-35 46 -35 115q0 127 107 225q50 46 116 71l14 -37q-154 -90 -154 -201q0 -42 27 -42q7 1 13 2l12 2q12 2 24 2q90 0 90 -91zM370 1089q0 -43 -32.5 -70.5t-76.5 -27.5q-66 0 -105 52q-35 46 -35 115q0 127 107 225
q50 46 116 71l14 -37q-155 -90 -155 -201q0 -42 29 -42q8 0 24 3t24 3q90 0 90 -91z" />
    <glyph glyph-name="quotedblright" unicode="&#x201d;" horiz-adv-x="963" 
d="M842 1287q0 -98 -66 -181q-61 -77 -157 -115l-14 37q155 89 155 200q0 42 -29 42q-8 0 -24 -3t-24 -3q-37 0 -63.5 26.5t-26.5 63.5q0 44 32 72t77 28q64 0 104 -53q36 -48 36 -114zM386 1287q0 -98 -66 -181q-61 -77 -157 -115l-14 37q154 89 154 200q0 42 -27 42
q-8 0 -24.5 -3t-24.5 -3q-38 0 -64.5 26t-26.5 64q0 43 32.5 71.5t76.5 28.5q64 0 104 -53q37 -48 37 -114z" />
    <glyph glyph-name="guilsinglleft" unicode="&#x2039;" horiz-adv-x="460" 
d="M400 197h-36l-295 370l295 369h36l-191 -369z" />
    <glyph glyph-name="guilsinglright" unicode="&#x203a;" horiz-adv-x="460" 
d="M392 567l-296 -370h-36l191 370l-191 369h36z" />
    <glyph glyph-name="u060C" unicode="&#x60c;" horiz-adv-x="417" 
d="M423 74q0 -22 -45 -72t-66 -50q-26 0 -70 43q-60 58 -60 147q0 53 63 142q66 93 115 93q19 0 23 -10q3 -10 -10 -22q-76 -72 -76 -119q0 -61 53 -76q19 -5 46 -32t27 -44z" />
    <glyph glyph-name="u061B" unicode="&#x61b;" horiz-adv-x="420" 
d="M406 65q0 -18 -44 -63.5t-61 -45.5q-19 0 -62.5 43.5t-43.5 62.5q0 17 46 63t64 46q16 0 58.5 -44.5t42.5 -61.5zM423 409q0 -25 -44 -68t-69 -43q-27 0 -69 38q-59 54 -59 142q0 53 63 142q66 93 115 93q26 0 26 -11q0 -8 -13 -21q-76 -76 -76 -119q0 -61 53 -76
q73 -21 73 -77z" />
    <glyph glyph-name="u061F" unicode="&#x61f;" horiz-adv-x="698" 
d="M701 1144q-38 -90 -95 -157q-90 55 -143 55q-42 0 -76 -25q-37 -27 -37 -68q0 -56 102 -162q84 -87 112 -127q55 -78 55 -150q0 -111 -127 -224l-88 78q97 92 97 150q0 39 -83 118q-124 118 -153 154q-83 103 -83 196q0 109 87 185q83 72 194 72q61 0 129 -25
q77 -28 109 -70zM620 71q0 -26 -57 -84t-83 -58q-28 0 -87 62t-59 91q0 23 61 79t85 56q25 0 82.5 -60.5t57.5 -85.5z" />
    <glyph glyph-name="u0640" unicode="&#x640;" horiz-adv-x="624" 
d="M-30 205h694v-204h-694v204z" />
    <glyph glyph-name="u064B" unicode="&#x64b;" 
d="M373 1498l-355 -189v77l355 191v-79zM373 1672l-355 -186v76l355 191v-81zM373 1498l-355 -189v77l355 191v-79z" />
    <glyph glyph-name="u064C" unicode="&#x64c;" 
d="M395 1528q4 -15 4 -27q0 -31 -19 -55q-33 7 -88 24q-136 -127 -267 -157l-16 53l72 43q24 59 -8 76q-25 14 -62 -15l-18 31q46 53 104 53q42 0 42 -63q0 -35 -18 -71q88 50 116 87q-54 52 -54 98q0 38 47 96.5t84 58.5q73 0 73 -84q0 -79 -47 -131q22 -11 55 -17z
M337 1643q0 42 -48 42q-19 0 -32 -22.5t-13 -43.5q0 -15 18 -36.5t33 -21.5q14 0 29 34q13 30 13 48z" />
    <glyph glyph-name="u064D" unicode="&#x64d;" 
d="M385 -1321l-366 -193v78l366 198v-83zM385 -1130l-366 -193v79l366 196v-82z" />
    <glyph glyph-name="u064E" unicode="&#x64e;" 
d="M373 1498l-355 -189v77l355 191v-79z" />
    <glyph glyph-name="u064F" unicode="&#x64f;" 
d="M395 1528q4 -15 4 -27q0 -31 -19 -55q-33 7 -88 24q-136 -127 -267 -157l-16 52q161 63 228 142q-54 52 -54 98q0 38 47 96.5t84 58.5q73 0 73 -84q0 -82 -47 -131q17 -10 55 -17zM337 1643q0 42 -48 42q-19 0 -32 -22.5t-13 -43.5q0 -15 18 -36.5t33 -21.5q14 0 29 34
q13 30 13 48z" />
    <glyph glyph-name="u0650" unicode="&#x650;" 
d="M355 -960l-355 -188v76l355 191v-79z" />
    <glyph glyph-name="u0651" unicode="&#x651;" 
d="M375 1487q-23 -86 -83 -86q-36 0 -50.5 14.5t-26.5 28.5l-39 -70q-37 -50 -95 -50q-32 0 -51 45q-14 33 -14 69q0 116 62 126q-6 -38 -6 -65q0 -60 29 -60q52 0 66 71q4 20 12 87q21 11 49 20q8 -106 48 -106q54 0 57 151l35 16q30 -108 7 -191z" />
    <glyph glyph-name="u0652" unicode="&#x652;" 
d="M296 1453q0 -134 -137 -134q-116 0 -116 101q0 47 35 128q37 87 71 87q72 0 112 -57q35 -50 35 -125zM258 1441q0 92 -109 92q-17 0 -34 -38q-14 -33 -14 -55q0 -16 26 -28q21 -9 40 -9q25 0 53 8q38 12 38 30z" />
    </font>
</defs>
</svg>
